<?xml version="1.0" encoding="utf-8"?>
<!-- Generator: Adobe Illustrator 16.0.0, SVG Export Plug-In . SVG Version: 6.00 Build 0)  -->
<!DOCTYPE svg PUBLIC "-//W3C//DTD SVG 1.1//EN" "http://www.w3.org/Graphics/SVG/1.1/DTD/svg11.dtd">
<svg version="1.1" id="Layer_1" xmlns="http://www.w3.org/2000/svg" xmlns:xlink="http://www.w3.org/1999/xlink" x="0px" y="0px"
	 width="150px" height="150px" viewBox="0 0 150 150" enable-background="new 0 0 150 150" xml:space="preserve">
<rect y="-0.087" fill="#1B98F5" width="150" height="150"/>
<g>
	<path fill="#FFFFFF" d="M100.896,105.088v9.246H49.112c-0.072-2.316,0.302-4.543,1.122-6.682c1.318-3.525,3.429-7,6.333-10.42
		c2.903-3.42,7.099-7.375,12.585-11.865c8.515-6.982,14.269-12.513,17.262-16.593c2.993-4.079,4.489-7.936,4.489-11.57
		c0-3.812-1.363-7.028-4.089-9.646c-2.725-2.619-6.279-3.928-10.661-3.928c-4.632,0-8.337,1.39-11.116,4.168
		c-2.779,2.779-4.187,6.627-4.222,11.544l-9.887-1.016c0.676-7.375,3.224-12.995,7.642-16.861c4.417-3.866,10.35-5.799,17.796-5.799
		c7.517,0,13.467,2.084,17.85,6.253c4.382,4.168,6.573,9.335,6.573,15.498c0,3.136-0.642,6.218-1.924,9.246
		c-1.283,3.029-3.412,6.218-6.387,9.565c-2.975,3.35-7.918,7.945-14.83,13.789c-5.771,4.846-9.477,8.133-11.116,9.859
		c-1.639,1.729-2.993,3.467-4.062,5.211H100.896z"/>
</g>
</svg>
