<?xml version="1.0" encoding="utf-8"?>
<!-- Generator: Adobe Illustrator 16.0.0, SVG Export Plug-In . SVG Version: 6.00 Build 0)  -->
<!DOCTYPE svg PUBLIC "-//W3C//DTD SVG 1.1//EN" "http://www.w3.org/Graphics/SVG/1.1/DTD/svg11.dtd">
<svg version="1.1" id="Layer_1" xmlns="http://www.w3.org/2000/svg" xmlns:xlink="http://www.w3.org/1999/xlink" x="0px" y="0px"
	 width="150px" height="150px" viewBox="0 0 150 150" enable-background="new 0 0 150 150" xml:space="preserve">
<rect fill="#7CB343" width="150" height="150"/>
<g>
	<path fill="#FFFFFF" d="M49.542,93.953l9.62-1.283c1.104,5.451,2.983,9.379,5.638,11.784c2.654,2.405,5.887,3.607,9.7,3.607
		c4.524,0,8.346-1.567,11.463-4.703c3.117-3.135,4.677-7.019,4.677-11.65c0-4.417-1.443-8.061-4.329-10.929
		c-2.886-2.867-6.556-4.303-11.009-4.303c-1.817,0-4.08,0.357-6.787,1.069l1.069-8.444c0.642,0.072,1.157,0.107,1.55,0.107
		c4.097,0,7.784-1.069,11.063-3.207s4.917-5.433,4.917-9.887c0-3.527-1.194-6.448-3.581-8.765c-2.387-2.315-5.469-3.474-9.245-3.474
		c-3.741,0-6.859,1.176-9.353,3.527c-2.494,2.351-4.098,5.878-4.81,10.582l-9.62-1.71c1.176-6.448,3.848-11.445,8.016-14.99
		c4.168-3.545,9.353-5.318,15.552-5.318c4.275,0,8.212,0.918,11.811,2.752c3.599,1.835,6.351,4.338,8.257,7.509
		c1.906,3.171,2.859,6.538,2.859,10.101c0,3.385-0.908,6.466-2.726,9.245c-1.816,2.779-4.508,4.989-8.069,6.627
		c4.631,1.069,8.229,3.287,10.795,6.654c2.565,3.366,3.848,7.58,3.848,12.639c0,6.841-2.494,12.64-7.481,17.396
		c-4.988,4.757-11.295,7.135-18.919,7.135c-6.876,0-12.585-2.049-17.128-6.146C52.774,105.782,50.183,100.473,49.542,93.953z"/>
</g>
</svg>
