<?xml version="1.0" encoding="utf-8"?>
<!-- Generator: Adobe Illustrator 16.0.0, SVG Export Plug-In . SVG Version: 6.00 Build 0)  -->
<!DOCTYPE svg PUBLIC "-//W3C//DTD SVG 1.1//EN" "http://www.w3.org/Graphics/SVG/1.1/DTD/svg11.dtd">
<svg version="1.1" id="Layer_1" xmlns="http://www.w3.org/2000/svg" xmlns:xlink="http://www.w3.org/1999/xlink" x="0px" y="0px"
	 width="150px" height="150px" viewBox="0 0 150 150" enable-background="new 0 0 150 150" xml:space="preserve">
<rect x="1" fill="#EB407A" width="150" height="150"/>
<g>
	<path fill="#FFFFFF" d="M49.027,92.449l10.101-0.855c0.748,4.917,2.485,8.613,5.21,11.089c2.726,2.478,6.013,3.715,9.86,3.715
		c4.631,0,8.551-1.745,11.758-5.237c3.206-3.491,4.81-8.123,4.81-13.896c0-5.485-1.542-9.814-4.623-12.986
		c-3.082-3.171-7.117-4.756-12.104-4.756c-3.1,0-5.897,0.704-8.391,2.111c-2.494,1.408-4.454,3.234-5.878,5.478l-9.032-1.176
		l7.589-40.242h38.959v9.192H66.021L61.8,65.941c4.703-3.277,9.637-4.917,14.804-4.917c6.841,0,12.612,2.37,17.315,7.108
		c4.702,4.739,7.054,10.831,7.054,18.277c0,7.09-2.066,13.219-6.199,18.384c-5.023,6.342-11.882,9.513-20.575,9.513
		c-7.126,0-12.942-1.995-17.448-5.985C52.242,104.331,49.669,99.041,49.027,92.449z"/>
</g>
</svg>
