<?xml version="1.0" encoding="utf-8"?>
<!-- Generator: Adobe Illustrator 16.0.0, SVG Export Plug-In . SVG Version: 6.00 Build 0)  -->
<!DOCTYPE svg PUBLIC "-//W3C//DTD SVG 1.1//EN" "http://www.w3.org/Graphics/SVG/1.1/DTD/svg11.dtd">
<svg version="1.1" id="Layer_1" xmlns="http://www.w3.org/2000/svg" xmlns:xlink="http://www.w3.org/1999/xlink" x="0px" y="0px"
	 width="150px" height="150px" viewBox="0 0 150 150" enable-background="new 0 0 150 150" xml:space="preserve">
<rect fill="#A946BA" width="150" height="150"/>
<g>
	<path fill="#FFFFFF" d="M99.477,54.505l-9.565,0.749c-0.854-3.776-2.065-6.52-3.634-8.23c-2.603-2.743-5.809-4.115-9.62-4.115
		c-3.064,0-5.754,0.855-8.07,2.565c-3.029,2.209-5.416,5.433-7.161,9.673c-1.746,4.24-2.655,10.279-2.726,18.117
		c2.315-3.527,5.148-6.146,8.498-7.856c3.348-1.71,6.858-2.565,10.528-2.565c6.412,0,11.871,2.36,16.379,7.081
		c4.508,4.721,6.762,10.823,6.762,18.303c0,4.918-1.061,9.486-3.182,13.709c-2.119,4.222-5.031,7.455-8.736,9.699
		c-3.706,2.244-7.909,3.367-12.612,3.367c-8.017,0-14.555-2.947-19.614-8.846c-5.059-5.896-7.588-15.613-7.588-29.152
		c0-15.141,2.796-26.15,8.39-33.027c4.881-5.985,11.454-8.979,19.72-8.979c6.164,0,11.214,1.729,15.151,5.184
		C96.332,43.639,98.691,48.413,99.477,54.505z M60.196,88.281c0,3.313,0.703,6.484,2.111,9.512c1.407,3.029,3.375,5.336,5.905,6.922
		c2.529,1.584,5.184,2.377,7.963,2.377c4.062,0,7.554-1.639,10.476-4.916c2.92-3.277,4.382-7.73,4.382-13.361
		c0-5.414-1.442-9.682-4.328-12.799c-2.888-3.117-6.521-4.676-10.903-4.676c-4.347,0-8.035,1.559-11.063,4.676
		C61.71,79.133,60.196,83.223,60.196,88.281z"/>
</g>
</svg>
