<?xml version="1.0" encoding="utf-8"?>
<!-- Generator: Adobe Illustrator 16.0.0, SVG Export Plug-In . SVG Version: 6.00 Build 0)  -->
<!DOCTYPE svg PUBLIC "-//W3C//DTD SVG 1.1//EN" "http://www.w3.org/Graphics/SVG/1.1/DTD/svg11.dtd">
<svg version="1.1" id="Layer_1" xmlns="http://www.w3.org/2000/svg" xmlns:xlink="http://www.w3.org/1999/xlink" x="0px" y="0px"
	 width="150px" height="150px" viewBox="0 0 150 150" enable-background="new 0 0 150 150" xml:space="preserve">
<rect x="1" fill="#5F7D8A" width="150" height="150"/>
<g>
	<path fill="#FFFFFF" d="M64.098,71.179c-3.991-1.46-6.948-3.545-8.872-6.253c-1.924-2.707-2.886-5.95-2.886-9.727
		c0-5.7,2.048-10.492,6.146-14.376c4.096-3.883,9.547-5.825,16.353-5.825c6.841,0,12.346,1.987,16.514,5.959
		c4.169,3.973,6.253,8.81,6.253,14.51c0,3.634-0.954,6.796-2.859,9.486c-1.906,2.69-4.801,4.766-8.685,6.226
		c4.811,1.568,8.471,4.098,10.982,7.588c2.512,3.492,3.768,7.66,3.768,12.506c0,6.699-2.369,12.328-7.107,16.887
		c-4.738,4.563-10.974,6.842-18.705,6.842s-13.967-2.289-18.705-6.867c-4.739-4.578-7.108-10.289-7.108-17.129
		c0-5.094,1.291-9.361,3.875-12.799C55.645,74.769,59.323,72.427,64.098,71.179z M59.074,91.059c0,2.744,0.65,5.398,1.951,7.963
		c1.3,2.566,3.233,4.553,5.799,5.959c2.565,1.408,5.326,2.111,8.283,2.111c4.596,0,8.391-1.479,11.383-4.436
		c2.993-2.957,4.489-6.715,4.489-11.275c0-4.631-1.541-8.463-4.623-11.49s-6.938-4.543-11.57-4.543
		c-4.525,0-8.275,1.497-11.25,4.489C60.562,82.83,59.074,86.57,59.074,91.059z M62.174,54.879c0,3.706,1.193,6.733,3.581,9.085
		c2.386,2.352,5.486,3.527,9.299,3.527c3.705,0,6.742-1.167,9.112-3.5c2.369-2.333,3.554-5.192,3.554-8.578
		c0-3.527-1.221-6.493-3.661-8.898s-5.478-3.607-9.112-3.607c-3.67,0-6.716,1.176-9.139,3.527
		C63.385,48.787,62.174,51.602,62.174,54.879z"/>
</g>
</svg>
