<?xml version="1.0" encoding="utf-8"?>
<!-- Generator: Adobe Illustrator 16.0.0, SVG Export Plug-In . SVG Version: 6.00 Build 0)  -->
<!DOCTYPE svg PUBLIC "-//W3C//DTD SVG 1.1//EN" "http://www.w3.org/Graphics/SVG/1.1/DTD/svg11.dtd">
<svg version="1.1" id="Layer_1" xmlns="http://www.w3.org/2000/svg" xmlns:xlink="http://www.w3.org/1999/xlink" x="0px" y="0px"
	 width="150px" height="150px" viewBox="0 0 150 150" enable-background="new 0 0 150 150" xml:space="preserve">
<rect fill="#1B98F5" width="150" height="150"/>
<g>
	<path fill="#FFFFFF" d="M45.42,114.173V35.827h29.394c5.985,0,10.786,0.793,14.402,2.378c3.615,1.585,6.448,4.026,8.497,7.321
		c2.049,3.296,3.073,6.743,3.073,10.342c0,3.349-0.909,6.502-2.726,9.459c-1.817,2.957-4.562,5.344-8.23,7.16
		c4.738,1.391,8.382,3.76,10.929,7.108c2.547,3.35,3.821,7.304,3.821,11.864c0,3.67-0.774,7.081-2.324,10.234
		s-3.466,5.585-5.745,7.295c-2.28,1.71-5.14,3.002-8.578,3.874c-3.438,0.874-7.651,1.31-12.639,1.31H45.42z M55.788,68.747h16.94
		c4.597,0,7.892-0.303,9.887-0.908c2.637-0.783,4.623-2.084,5.959-3.901s2.004-4.097,2.004-6.841c0-2.6-0.623-4.891-1.87-6.867
		c-1.248-1.978-3.028-3.331-5.344-4.062c-2.316-0.729-6.289-1.096-11.918-1.096H55.788V68.747z M55.788,104.928h19.506
		c3.349,0,5.7-0.125,7.055-0.374c2.387-0.428,4.382-1.141,5.985-2.138s2.921-2.449,3.955-4.356c1.032-1.905,1.55-4.105,1.55-6.6
		c0-2.921-0.749-5.459-2.245-7.615c-1.496-2.155-3.572-3.669-6.226-4.543c-2.655-0.873-6.476-1.309-11.464-1.309H55.788V104.928z"/>
</g>
</svg>
