<?xml version="1.0" encoding="utf-8"?>
<!-- Generator: Adobe Illustrator 16.0.0, SVG Export Plug-In . SVG Version: 6.00 Build 0)  -->
<!DOCTYPE svg PUBLIC "-//W3C//DTD SVG 1.1//EN" "http://www.w3.org/Graphics/SVG/1.1/DTD/svg11.dtd">
<svg version="1.1" id="Layer_1" xmlns="http://www.w3.org/2000/svg" xmlns:xlink="http://www.w3.org/1999/xlink" x="0px" y="0px"
	 width="150px" height="150px" viewBox="0 0 150 150" enable-background="new 0 0 150 150" xml:space="preserve">
<rect fill="#7CB343" width="150" height="150"/>
<g>
	<path fill="#FFFFFF" d="M99.264,86.703l10.367,2.619c-2.174,8.516-6.084,15.009-11.73,19.479
		c-5.648,4.472-12.551,6.707-20.709,6.707c-8.444,0-15.311-1.719-20.602-5.157c-5.291-3.438-9.317-8.417-12.078-14.937
		c-2.761-6.521-4.142-13.521-4.142-21.003c0-8.159,1.559-15.275,4.677-21.351c3.117-6.074,7.553-10.688,13.307-13.842
		c5.753-3.152,12.086-4.729,18.999-4.729c7.838,0,14.43,1.995,19.773,5.984c5.344,3.991,9.066,9.603,11.17,16.835l-10.207,2.405
		c-1.818-5.7-4.455-9.852-7.91-12.453c-3.457-2.6-7.803-3.9-13.039-3.9c-6.022,0-11.055,1.443-15.098,4.328
		c-4.044,2.887-6.886,6.761-8.524,11.624s-2.458,9.878-2.458,15.044c0,6.663,0.971,12.479,2.913,17.449
		c1.941,4.97,4.961,8.684,9.058,11.143c4.097,2.458,8.533,3.688,13.307,3.688c5.807,0,10.725-1.675,14.75-5.023
		S97.838,93.295,99.264,86.703z"/>
</g>
</svg>
