<?xml version="1.0" encoding="utf-8"?>
<!-- Generator: Adobe Illustrator 16.0.0, SVG Export Plug-In . SVG Version: 6.00 Build 0)  -->
<!DOCTYPE svg PUBLIC "-//W3C//DTD SVG 1.1//EN" "http://www.w3.org/Graphics/SVG/1.1/DTD/svg11.dtd">
<svg version="1.1" id="Layer_1" xmlns="http://www.w3.org/2000/svg" xmlns:xlink="http://www.w3.org/1999/xlink" x="0px" y="0px"
	 width="150px" height="150px" viewBox="0 0 150 150" enable-background="new 0 0 150 150" xml:space="preserve">
<rect fill="#FF9800" width="150" height="150"/>
<g>
	<path fill="#FFFFFF" d="M42.614,114.173V35.827h26.988c6.092,0,10.741,0.373,13.948,1.122c4.489,1.034,8.318,2.903,11.49,5.611
		c4.132,3.492,7.223,7.954,9.271,13.388s3.073,11.642,3.073,18.624c0,5.95-0.694,11.223-2.084,15.819
		c-1.39,4.596-3.172,8.399-5.345,11.409c-2.173,3.012-4.552,5.38-7.134,7.108c-2.584,1.729-5.701,3.037-9.353,3.928
		c-3.652,0.891-7.848,1.336-12.586,1.336H42.614z M52.981,104.928h16.728c5.166,0,9.219-0.481,12.158-1.443s5.281-2.315,7.027-4.062
		c2.459-2.458,4.373-5.763,5.745-9.913c1.371-4.15,2.058-9.184,2.058-15.098c0-8.194-1.345-14.491-4.035-18.892
		s-5.958-7.349-9.807-8.846c-2.778-1.068-7.25-1.603-13.413-1.603H52.981V104.928z"/>
</g>
</svg>
