<?xml version="1.0" encoding="utf-8"?>
<!-- Generator: Adobe Illustrator 16.0.0, SVG Export Plug-In . SVG Version: 6.00 Build 0)  -->
<!DOCTYPE svg PUBLIC "-//W3C//DTD SVG 1.1//EN" "http://www.w3.org/Graphics/SVG/1.1/DTD/svg11.dtd">
<svg version="1.1" id="Layer_1" xmlns="http://www.w3.org/2000/svg" xmlns:xlink="http://www.w3.org/1999/xlink" x="0px" y="0px"
	 width="150px" height="150px" viewBox="0 0 150 150" enable-background="new 0 0 150 150" xml:space="preserve">
<rect fill="#A946BA" width="150" height="150"/>
<g>
	<path fill="#FFFFFF" d="M78.047,83.443v-9.192l33.188-0.053v29.072c-5.096,4.062-10.352,7.117-15.766,9.165
		c-5.416,2.049-10.975,3.073-16.674,3.073c-7.696,0-14.689-1.647-20.976-4.943c-6.289-3.295-11.036-8.061-14.243-14.296
		c-3.206-6.234-4.81-13.2-4.81-20.896c0-7.624,1.595-14.741,4.783-21.35c3.188-6.609,7.776-11.518,13.762-14.725
		c5.985-3.206,12.879-4.809,20.681-4.809c5.666,0,10.787,0.917,15.365,2.752s8.168,4.391,10.77,7.669
		c2.6,3.278,4.576,7.554,5.932,12.825l-9.354,2.566c-1.176-3.99-2.637-7.126-4.381-9.406c-1.746-2.279-4.24-4.105-7.482-5.479
		c-3.242-1.371-6.84-2.057-10.795-2.057c-4.74,0-8.836,0.721-12.292,2.164s-6.244,3.34-8.363,5.691
		c-2.12,2.352-3.768,4.936-4.943,7.75c-1.996,4.846-2.993,10.1-2.993,15.765c0,6.983,1.202,12.826,3.607,17.529
		s5.905,8.195,10.502,10.475c4.596,2.28,9.477,3.42,14.643,3.42c4.488,0,8.871-0.863,13.146-2.592
		c4.275-1.728,7.518-3.571,9.727-5.531v-14.59H78.047z"/>
</g>
</svg>
