<?xml version="1.0" encoding="utf-8"?>
<!-- Generator: Adobe Illustrator 16.0.0, SVG Export Plug-In . SVG Version: 6.00 Build 0)  -->
<!DOCTYPE svg PUBLIC "-//W3C//DTD SVG 1.1//EN" "http://www.w3.org/Graphics/SVG/1.1/DTD/svg11.dtd">
<svg version="1.1" id="Layer_1" xmlns="http://www.w3.org/2000/svg" xmlns:xlink="http://www.w3.org/1999/xlink" x="0px" y="0px"
	 width="150px" height="150px" viewBox="0 0 150 150" enable-background="new 0 0 150 150" xml:space="preserve">
<rect fill="#FEB201" width="150" height="150"/>
<g>
	<path fill="#FFFFFF" d="M53.467,91.273l9.353-1.283c0.249,5.985,1.371,10.083,3.366,12.292s4.757,3.313,8.284,3.313
		c2.601,0,4.845-0.597,6.733-1.791c1.888-1.192,3.188-2.813,3.901-4.862c0.712-2.049,1.069-5.318,1.069-9.807V35.159h10.367v53.389
		c0,6.556-0.793,11.633-2.378,15.23c-1.586,3.599-4.098,6.342-7.535,8.23c-3.439,1.888-7.474,2.832-12.104,2.832
		c-6.877,0-12.141-1.978-15.793-5.932C55.078,104.954,53.324,99.075,53.467,91.273z"/>
</g>
</svg>
