<?xml version="1.0" encoding="utf-8"?>
<!-- Generator: Adobe Illustrator 16.0.0, SVG Export Plug-In . SVG Version: 6.00 Build 0)  -->
<!DOCTYPE svg PUBLIC "-//W3C//DTD SVG 1.1//EN" "http://www.w3.org/Graphics/SVG/1.1/DTD/svg11.dtd">
<svg version="1.1" id="Layer_1" xmlns="http://www.w3.org/2000/svg" xmlns:xlink="http://www.w3.org/1999/xlink" x="0px" y="0px"
	 width="150px" height="150px" viewBox="0 0 150 150" enable-background="new 0 0 150 150" xml:space="preserve">
<rect fill="#5F7D8A" width="150" height="150"/>
<g>
	<path fill="#FFFFFF" d="M37.537,76.042c0-13.004,3.491-23.184,10.475-30.541c6.982-7.357,15.997-11.037,27.042-11.037
		c7.232,0,13.752,1.729,19.56,5.185c5.807,3.456,10.234,8.275,13.28,14.456c3.046,6.182,4.569,13.191,4.569,21.029
		c0,7.945-1.604,15.054-4.81,21.323c-3.207,6.271-7.749,11.019-13.628,14.243S81.805,115.536,75,115.536
		c-7.375,0-13.967-1.781-19.773-5.344c-5.808-3.563-10.208-8.426-13.2-14.59C39.033,89.438,37.537,82.919,37.537,76.042z
		 M48.226,76.202c0,9.442,2.538,16.88,7.615,22.313c5.077,5.434,11.445,8.15,19.105,8.15c7.803,0,14.225-2.743,19.267-8.23
		c5.041-5.486,7.562-13.271,7.562-23.354c0-6.377-1.078-11.945-3.233-16.701c-2.156-4.756-5.309-8.443-9.459-11.063
		c-4.151-2.619-8.81-3.928-13.976-3.928c-7.34,0-13.654,2.521-18.944,7.563C50.871,55.993,48.226,64.411,48.226,76.202z"/>
</g>
</svg>
