<?xml version="1.0" encoding="utf-8"?>
<!-- Generator: Adobe Illustrator 16.0.0, SVG Export Plug-In . SVG Version: 6.00 Build 0)  -->
<!DOCTYPE svg PUBLIC "-//W3C//DTD SVG 1.1//EN" "http://www.w3.org/Graphics/SVG/1.1/DTD/svg11.dtd">
<svg version="1.1" id="Layer_1" xmlns="http://www.w3.org/2000/svg" xmlns:xlink="http://www.w3.org/1999/xlink" x="0px" y="0px"
	 width="150px" height="150px" viewBox="0 0 150 150" enable-background="new 0 0 150 150" xml:space="preserve">
<rect fill="#A946BA" width="150" height="150"/>
<g>
	<path fill="#FFFFFF" d="M45.099,114.173V35.827h29.554c5.201,0,9.173,0.249,11.917,0.748c3.848,0.641,7.072,1.861,9.672,3.66
		c2.602,1.8,4.695,4.32,6.279,7.563c1.586,3.242,2.379,6.806,2.379,10.688c0,6.663-2.119,12.301-6.359,16.914
		c-4.24,4.614-11.9,6.921-22.98,6.921H55.466v31.852H45.099z M55.466,73.075h20.255c6.699,0,11.455-1.246,14.269-3.74
		s4.223-6.003,4.223-10.528c0-3.277-0.828-6.083-2.486-8.417c-1.656-2.333-3.84-3.875-6.547-4.623
		c-1.746-0.463-4.969-0.694-9.672-0.694H55.466V73.075z"/>
</g>
</svg>
