<?xml version="1.0" encoding="utf-8"?>
<!-- Generator: Adobe Illustrator 16.0.0, SVG Export Plug-In . SVG Version: 6.00 Build 0)  -->
<!DOCTYPE svg PUBLIC "-//W3C//DTD SVG 1.1//EN" "http://www.w3.org/Graphics/SVG/1.1/DTD/svg11.dtd">
<svg version="1.1" id="Layer_1" xmlns="http://www.w3.org/2000/svg" xmlns:xlink="http://www.w3.org/1999/xlink" x="0px" y="0px"
	 width="150px" height="150px" viewBox="0 0 150 150" enable-background="new 0 0 150 150" xml:space="preserve">
<rect fill="#1B98F5" width="150" height="150"/>
<g>
	<path fill="#FFFFFF" d="M99.904,103.432c4.81,3.313,9.244,5.736,13.307,7.269l-3.046,7.215c-5.63-2.031-11.241-5.235-16.834-9.619
		c-5.808,3.242-12.222,4.863-19.239,4.863c-7.091,0-13.521-1.711-19.293-5.132c-5.771-3.42-10.217-8.229-13.334-14.43
		c-3.117-6.199-4.676-13.182-4.676-20.949c0-7.731,1.567-14.768,4.703-21.11c3.135-6.341,7.597-11.169,13.387-14.483
		s12.266-4.97,19.427-4.97c7.232,0,13.752,1.72,19.56,5.157c5.807,3.439,10.233,8.249,13.28,14.43
		c3.045,6.182,4.568,13.156,4.568,20.922c0,6.45-0.98,12.247-2.939,17.395C106.814,95.139,103.859,99.619,99.904,103.432z
		 M77.084,90.178c5.986,1.676,10.92,4.168,14.805,7.482c6.092-5.559,9.139-13.912,9.139-25.065c0-6.341-1.078-11.882-3.233-16.621
		c-2.155-4.738-5.31-8.417-9.459-11.036c-4.151-2.619-8.81-3.928-13.976-3.928c-7.731,0-14.145,2.645-19.238,7.936
		c-5.096,5.291-7.643,13.192-7.643,23.702c0,10.189,2.521,18.009,7.563,23.459c5.041,5.451,11.48,8.179,19.318,8.179
		c3.706,0,7.198-0.695,10.476-2.084c-3.243-2.104-6.663-3.601-10.262-4.49L77.084,90.178z"/>
</g>
</svg>
