<?xml version="1.0" encoding="utf-8"?>
<!-- Generator: Adobe Illustrator 16.0.0, SVG Export Plug-In . SVG Version: 6.00 Build 0)  -->
<!DOCTYPE svg PUBLIC "-//W3C//DTD SVG 1.1//EN" "http://www.w3.org/Graphics/SVG/1.1/DTD/svg11.dtd">
<svg version="1.1" id="Layer_1" xmlns="http://www.w3.org/2000/svg" xmlns:xlink="http://www.w3.org/1999/xlink" x="0px" y="0px"
	 width="150px" height="150px" viewBox="0 0 150 150" enable-background="new 0 0 150 150" xml:space="preserve">
<rect fill="#7CB343" width="150" height="150"/>
<g>
	<path fill="#FFFFFF" d="M40.477,114.174V35.827h34.737c6.981,0,12.292,0.704,15.927,2.11c3.633,1.408,6.536,3.894,8.711,7.456
		c2.172,3.563,3.26,7.5,3.26,11.811c0,5.558-1.799,10.243-5.397,14.056c-3.598,3.813-9.157,6.235-16.674,7.268
		c2.743,1.318,4.827,2.619,6.253,3.902c3.027,2.777,5.896,6.252,8.604,10.42l13.629,21.324H96.484L86.116,97.873
		c-3.029-4.703-5.523-8.301-7.482-10.795s-3.714-4.24-5.264-5.236c-1.55-0.998-3.126-1.693-4.729-2.086
		c-1.176-0.248-3.1-0.373-5.771-0.373H50.845v34.791H40.477z M50.845,70.404H73.13c4.737,0,8.443-0.489,11.115-1.47
		c2.673-0.979,4.703-2.547,6.093-4.702c1.391-2.156,2.084-4.498,2.084-7.028c0-3.705-1.345-6.751-4.033-9.139
		c-2.69-2.387-6.939-3.581-12.746-3.581H50.845V70.404z"/>
</g>
</svg>
