<?xml version="1.0" encoding="utf-8"?>
<!-- Generator: Adobe Illustrator 16.0.0, SVG Export Plug-In . SVG Version: 6.00 Build 0)  -->
<!DOCTYPE svg PUBLIC "-//W3C//DTD SVG 1.1//EN" "http://www.w3.org/Graphics/SVG/1.1/DTD/svg11.dtd">
<svg version="1.1" id="Layer_1" xmlns="http://www.w3.org/2000/svg" xmlns:xlink="http://www.w3.org/1999/xlink" x="0px" y="0px"
	 width="150px" height="150px" viewBox="0 0 150 150" enable-background="new 0 0 150 150" xml:space="preserve">
<rect fill="#FF9800" width="150" height="150"/>
<g>
	<path fill="#FFFFFF" d="M43.816,89.002l9.78-0.855c0.462,3.92,1.54,7.135,3.232,9.646s4.32,4.543,7.883,6.092
		c3.563,1.551,7.57,2.326,12.024,2.326c3.955,0,7.446-0.588,10.475-1.764s5.282-2.787,6.761-4.836s2.218-4.285,2.218-6.707
		c0-2.459-0.713-4.605-2.138-6.441c-1.425-1.834-3.776-3.375-7.055-4.621c-2.103-0.82-6.752-2.094-13.948-3.822
		c-7.197-1.729-12.238-3.358-15.124-4.89c-3.74-1.959-6.529-4.391-8.363-7.295c-1.836-2.903-2.752-6.154-2.752-9.753
		c0-3.955,1.122-7.65,3.366-11.09c2.245-3.438,5.522-6.047,9.834-7.829c4.31-1.78,9.103-2.672,14.375-2.672
		c5.808,0,10.93,0.935,15.365,2.806s7.847,4.623,10.234,8.257c2.386,3.634,3.669,7.749,3.848,12.345l-9.94,0.748
		c-0.534-4.951-2.343-8.692-5.425-11.223c-3.082-2.529-7.634-3.794-13.654-3.794c-6.271,0-10.84,1.149-13.708,3.446
		c-2.868,2.299-4.302,5.069-4.302,8.311c0,2.815,1.016,5.131,3.046,6.947c1.995,1.817,7.206,3.68,15.632,5.586
		s14.207,3.572,17.342,4.996c4.561,2.103,7.928,4.766,10.101,7.991s3.261,6.939,3.261,11.143c0,4.168-1.194,8.096-3.581,11.783
		c-2.388,3.688-5.816,6.557-10.287,8.604c-4.472,2.049-9.505,3.074-15.098,3.074c-7.091,0-13.031-1.033-17.823-3.1
		s-8.551-5.176-11.276-9.326S43.958,94.24,43.816,89.002z"/>
</g>
</svg>
