<?xml version="1.0" encoding="utf-8"?>
<!-- Generator: Adobe Illustrator 16.0.0, SVG Export Plug-In . SVG Version: 6.00 Build 0)  -->
<!DOCTYPE svg PUBLIC "-//W3C//DTD SVG 1.1//EN" "http://www.w3.org/Graphics/SVG/1.1/DTD/svg11.dtd">
<svg version="1.1" id="Layer_1" xmlns="http://www.w3.org/2000/svg" xmlns:xlink="http://www.w3.org/1999/xlink" x="0px" y="0px"
	 width="150px" height="150px" viewBox="0 0 150 150" enable-background="new 0 0 150 150" xml:space="preserve">
<rect fill="#EB407A" width="150" height="150"/>
<g>
	<path fill="#FFFFFF" d="M95.441,35.159h10.368v45.265c0,7.875-0.892,14.129-2.673,18.76s-4.996,8.398-9.646,11.303
		c-4.649,2.904-10.751,4.355-18.304,4.355c-7.34,0-13.343-1.266-18.01-3.795c-4.668-2.529-7.999-6.189-9.993-10.982
		c-1.996-4.791-2.993-11.338-2.993-19.641V35.159h10.368v45.212c0,6.807,0.632,11.82,1.896,15.045s3.438,5.709,6.521,7.455
		c3.081,1.746,6.849,2.617,11.303,2.617c7.624,0,13.058-1.727,16.3-5.184c3.241-3.455,4.863-10.1,4.863-19.934V35.159z"/>
</g>
</svg>
