<?xml version="1.0" encoding="utf-8"?>
<!-- Generator: Adobe Illustrator 16.0.0, SVG Export Plug-In . SVG Version: 6.00 Build 0)  -->
<!DOCTYPE svg PUBLIC "-//W3C//DTD SVG 1.1//EN" "http://www.w3.org/Graphics/SVG/1.1/DTD/svg11.dtd">
<svg version="1.1" id="Layer_1" xmlns="http://www.w3.org/2000/svg" xmlns:xlink="http://www.w3.org/1999/xlink" x="0px" y="0px"
	 width="150px" height="150px" viewBox="0 0 150 150" enable-background="new 0 0 150 150" xml:space="preserve">
<rect fill="#01BCD3" width="150" height="150"/>
<g>
	<path fill="#FFFFFF" d="M45.42,114.174L24.631,35.827h10.636l11.917,51.358c1.283,5.379,2.387,10.726,3.313,16.031
		c1.995-8.371,3.171-13.199,3.527-14.482l14.91-52.907h12.505l11.224,39.654c2.813,9.833,4.845,19.08,6.093,27.736
		c0.997-4.951,2.299-10.635,3.9-17.047l12.292-50.343h10.421l-21.482,78.347h-9.994L77.379,54.478
		c-1.391-4.988-2.21-8.051-2.459-9.191c-0.819,3.598-1.585,6.662-2.298,9.191l-16.62,59.696H45.42z"/>
</g>
</svg>
