<svg id="Layer_1" data-name="Layer 1" xmlns="http://www.w3.org/2000/svg" width="35" height="35" viewBox="0 0 35 35">
  <g>
    <polygon points="27.759 14.806 24.992 16.331 24.992 18.685 27.759 20.177 27.759 14.806" style="fill: #0d9bf3"/>
    <path d="M17.5,0A17.5,17.5,0,1,0,35,17.5,17.5,17.5,0,0,0,17.5,0Zm3.80228,13.41491H8.59781v8.832h9.07574V19.73616H11.10861V15.92568H21.30228v6.53178a3.10346,3.10346,0,0,1-3.10348,3.10346H8.28387a3.10345,3.10345,0,0,1-3.10343-3.10346v-9.915A3.10344,3.10344,0,0,1,8.28387,9.43906H18.1988a3.10345,3.10345,0,0,1,3.10348,3.10345ZM29.8196,24.02935l-6.73088-3.62743V14.67866l6.73088-3.708Z" style="fill: #0d9bf3"/>
  </g>
</svg>
