<svg id="Layer_1" data-name="Layer 1" xmlns="http://www.w3.org/2000/svg" width="112.30957" height="35" viewBox="0 0 112.30957 35">
  <g>
    <path d="M6.66016,14.45459h6.23046v8.14258a17.51292,17.51292,0,0,1-2.85253.69287,18.58689,18.58689,0,0,1-2.7334.19873A6.919,6.919,0,0,1,1.874,21.39941,8.69429,8.69429,0,0,1,0,15.3999,7.91631,7.91631,0,0,1,2.1748,9.47021,8.26219,8.26219,0,0,1,8.207,7.34326a11.67174,11.67174,0,0,1,4.66211.9668L11.7627,10.97412a7.90252,7.90252,0,0,0-3.57715-.85937,4.41725,4.41725,0,0,0-3.459,1.45019,5.627,5.627,0,0,0-1.2998,3.89942,6.26837,6.26837,0,0,0,1.04687,3.90478,3.62534,3.62534,0,0,0,3.0459,1.34815,10.747,10.747,0,0,0,2.11621-.21485V17.22607H6.66016Z" style="fill: #0d9bf3"/>
    <path d="M27.28516,17.24756a6.45309,6.45309,0,0,1-1.54688,4.58691,5.6077,5.6077,0,0,1-4.30762,1.6543,6.025,6.025,0,0,1-3.05078-.75732,5.03942,5.03942,0,0,1-2.03027-2.1753,7.30853,7.30853,0,0,1-.709-3.30859,6.41776,6.41776,0,0,1,1.53614-4.57617,5.64273,5.64273,0,0,1,4.31836-1.63282,6.06237,6.06237,0,0,1,3.05078.752,5.02069,5.02069,0,0,1,2.03027,2.15918A7.24321,7.24321,0,0,1,27.28516,17.24756Zm-8.30371,0a5.046,5.046,0,0,0,.585,2.69629,2.09461,2.09461,0,0,0,1.90722.91308,2.061,2.061,0,0,0,1.88575-.90771,5.1155,5.1155,0,0,0,.57421-2.70166,4.96231,4.96231,0,0,0-.58007-2.67481,2.09776,2.09776,0,0,0-1.90137-.8916,2.0903,2.0903,0,0,0-1.89063.88623A4.95671,4.95671,0,0,0,18.98145,17.24756Z" style="fill: #0d9bf3"/>
    <path d="M36.89941,23.27393,33.11816,10.95264h-.09668q.20363,3.76024.20411,5.0166v7.30469H30.25V7.56885h4.5332L38.5,19.57861h.06445L42.50684,7.56885H47.04V23.27393H43.93555v-7.4336q0-.52587.01562-1.21387.01758-.687.14551-3.65234H44L39.9502,23.27393Z" style="fill: #0d9bf3"/>
    <path d="M56.1709,23.48877a6.19784,6.19784,0,0,1-4.5332-1.60059,6.05885,6.05885,0,0,1-1.63282-4.5332,6.66343,6.66343,0,0,1,1.50977-4.66747,5.37269,5.37269,0,0,1,4.17285-1.64894,5.28975,5.28975,0,0,1,3.96387,1.4502,5.4869,5.4869,0,0,1,1.418,4.00684v1.58984H53.32422a3.1542,3.1542,0,0,0,.82715,2.18066,2.91019,2.91019,0,0,0,2.16992.78418,9.00611,9.00611,0,0,0,2.05176-.22558,10.26324,10.26324,0,0,0,2.01953-.71973v2.53516a7.69615,7.69615,0,0,1-1.83692.63916A11.57712,11.57712,0,0,1,56.1709,23.48877ZM55.709,13.36963a2.07814,2.07814,0,0,0-1.63281.66064,3.062,3.062,0,0,0-.67676,1.87452h4.59766a2.733,2.733,0,0,0-.63379-1.87452A2.14637,2.14637,0,0,0,55.709,13.36963Z" style="fill: #0d9bf3"/>
    <path d="M69.169,23.48877a6.19788,6.19788,0,0,1-4.53321-1.60059,6.05888,6.05888,0,0,1-1.63281-4.5332,6.66343,6.66343,0,0,1,1.50977-4.66747,5.37267,5.37267,0,0,1,4.17285-1.64894,5.28973,5.28973,0,0,1,3.96386,1.4502,5.48686,5.48686,0,0,1,1.418,4.00684v1.58984H66.32227a3.15424,3.15424,0,0,0,.82714,2.18066,2.91023,2.91023,0,0,0,2.16993.78418,9.006,9.006,0,0,0,2.05175-.22558,10.263,10.263,0,0,0,2.01953-.71973v2.53516a7.69608,7.69608,0,0,1-1.83691.63916A11.57725,11.57725,0,0,1,69.169,23.48877ZM68.707,13.36963a2.07813,2.07813,0,0,0-1.63281.66064,3.062,3.062,0,0,0-.67676,1.87452h4.59766a2.733,2.733,0,0,0-.63379-1.87452A2.14639,2.14639,0,0,0,68.707,13.36963Z" style="fill: #0d9bf3"/>
    <path d="M81.791,20.87842a7.08759,7.08759,0,0,0,2.0625-.376v2.43848a7.355,7.355,0,0,1-3.00782.54785,3.67906,3.67906,0,0,1-2.8623-.99365,4.32073,4.32073,0,0,1-.89746-2.981v-5.79H75.51758V12.33838l1.80469-1.0957.94531-2.53516H80.3623v2.55664h3.36231v2.46H80.3623v5.79a1.27733,1.27733,0,0,0,.39258,1.03125A1.54365,1.54365,0,0,0,81.791,20.87842Z" style="fill: #0d9bf3"/>
    <path d="M86.1416,8.15967q0-1.60035,1.7832-1.60059,1.78272,0,1.78321,1.60059a1.55762,1.55762,0,0,1-.44629,1.187A1.87,1.87,0,0,1,87.9248,9.771Q86.14209,9.771,86.1416,8.15967Zm3.416,15.11426H86.28125V11.26416h3.27637Z" style="fill: #0d9bf3"/>
    <path d="M99.63379,13.72412H96.79785v9.54981H93.52148V13.72412H91.7168V12.145l1.80468-.88086V10.3833a3.93644,3.93644,0,0,1,1.00977-2.99707,4.62825,4.62825,0,0,1,3.2334-.94531,8.41745,8.41745,0,0,1,3.01855.50488l-.83789,2.40625a6.11379,6.11379,0,0,0-1.82617-.31152,1.18332,1.18332,0,0,0-1.00976.41357,1.70885,1.70885,0,0,0-.31153,1.05811v.752h2.83594Z" style="fill: #0d9bf3"/>
    <path d="M99.79492,11.26416h3.58789l2.2666,6.75684a9.362,9.362,0,0,1,.39747,2.084h.06445a9.21511,9.21511,0,0,1,.46191-2.084l2.22364-6.75684h3.51269l-5.081,13.5459a5.87233,5.87233,0,0,1-1.99219,2.81445,5.03088,5.03088,0,0,1-3.02442.93457,7.61361,7.61361,0,0,1-1.665-.18262v-2.5996a5.61478,5.61478,0,0,0,1.28906.13964,2.3255,2.3255,0,0,0,1.51953-.53173,3.44442,3.44442,0,0,0,1.01562-1.606l.19336-.59082Z" style="fill: #0d9bf3"/>
  </g>
</svg>
