<svg id="Layer_1" data-name="Layer 1" xmlns="http://www.w3.org/2000/svg" width="35" height="35" viewBox="0 0 35 35">
  <g>
    <path d="M13.23743,14.67725A7.33863,7.33863,0,1,0,5.89886,7.33856,7.347,7.347,0,0,0,13.23743,14.67725Zm0-12.73279a5.39417,5.39417,0,1,1-5.39411,5.3941A5.40029,5.40029,0,0,1,13.23743,1.94446Z"/>
    <path d="M15.27234,18.44476H11.20251A11.21523,11.21523,0,0,0,0,29.64728v1.12628A4.23118,4.23118,0,0,0,4.22644,35h18.022a4.23118,4.23118,0,0,0,4.22644-4.22644V29.64728A11.21523,11.21523,0,0,0,15.27234,18.44476Zm9.25806,12.3288a2.28456,2.28456,0,0,1-2.282,2.282H4.22644a2.28455,2.28455,0,0,1-2.282-2.282V29.64728a9.26853,9.26853,0,0,1,9.25805-9.25806h4.06983a9.26853,9.26853,0,0,1,9.25806,9.25806Z"/>
    <path d="M34.02777,13.28479H29.8399V9.09692a.9722.9722,0,1,0-1.94439,0v4.18787H23.7077a.97223.97223,0,0,0,0,1.94446h4.18781V19.417a.9722.9722,0,1,0,1.94439,0V15.22925h4.18787a.97223.97223,0,1,0,0-1.94446Z"/>
  </g>
</svg>
