<?xml version="1.0" encoding="UTF-8" standalone="no"?><!-- Generator: Gravit.io --><svg xmlns="http://www.w3.org/2000/svg" xmlns:xlink="http://www.w3.org/1999/xlink" style="isolation:isolate" viewBox="0 0 40 40" width="40pt" height="40pt"><defs><clipPath id="_clipPath_KmiZxukWzX8yH01E0o5yBultYFxklK32"><rect width="40" height="40"/></clipPath></defs><g clip-path="url(#_clipPath_KmiZxukWzX8yH01E0o5yBultYFxklK32)"><g><path d=" M 39 20.003 C 39 30.493 30.492 39 19.999 39 C 9.507 39 1 30.493 1 20.003 C 1 9.508 9.507 1 19.999 1 C 30.492 1 39 9.508 39 20.003 Z " fill="rgb(255,225,33)"/><g><path d=" M 28.433 33.265 L 26.921 31.518 C 30.274 28.618 32.196 24.417 32.196 19.989 C 32.196 15.563 30.274 11.365 26.921 8.47 L 28.433 6.722 C 32.29 10.056 34.502 14.89 34.502 19.989 C 34.502 25.09 32.29 29.927 28.433 33.265 Z " fill="rgb(0,0,0)"/><path d=" M 24 29.311 L 22.456 27.591 C 24.617 25.656 25.854 22.884 25.854 19.987 C 25.854 17.099 24.619 14.33 22.459 12.394 L 24.003 10.675 C 26.649 13.049 28.162 16.444 28.162 19.986 C 28.162 23.543 26.646 26.941 24 29.311 Z " fill="rgb(0,0,0)"/><path d=" M 19.697 11.191 L 18.031 11.191 L 12.782 17.214 L 8.423 17.214 L 8.423 22.869 L 12.927 22.869 L 18.245 28.677 L 19.697 28.677 L 19.697 11.191 Z " fill="rgb(0,0,0)"/></g></g></g></svg>