<svg id="Layer_1" data-name="Layer 1" xmlns="http://www.w3.org/2000/svg" width="26.06017" height="35" viewBox="0 0 26.06017 35">
  <path d="M28.32689,35a2.327,2.327,0,0,1-1.53866-.6704q-.01809-.01581-.03532-.03257l-9.2447-8.96965L8.69863,34.082l-.0226.02183a2.26654,2.26654,0,0,1-2.54327.72c-1.54293-.67144-1.66285-3.23332-1.66285-4.00255V4.10491A4.10954,4.10954,0,0,1,8.57482,0H26.42516a4.10954,4.10954,0,0,1,4.10491,4.10491V30.82123C30.53321,33.04,30.027,34.39587,29.0253,34.85A1.69213,1.69213,0,0,1,28.32689,35ZM8.57482,1.94445A2.16292,2.16292,0,0,0,6.41437,4.10491V30.82123a4.08714,4.08714,0,0,0,.47111,2.19187,1.56083,1.56083,0,0,0,.45431-.32205l9.47494-9.41579a.972.972,0,0,1,1.36236-.00817l9.91093,9.616a1.38712,1.38712,0,0,0,.16159.1219,4.72,4.72,0,0,0,.336-2.18248V4.10491a2.16292,2.16292,0,0,0-2.16046-2.16046Z" transform="translate(-4.46991)"/>
</svg>
