<svg id="Layer_1" data-name="Layer 1" xmlns="http://www.w3.org/2000/svg" xmlns:xlink="http://www.w3.org/1999/xlink" width="99.97593" height="96.63892" viewBox="0 0 99.97593 96.63892">
  <defs>
    <clipPath id="clip-path" transform="translate(-0.01204 -1.68054)">
      <rect id="SVGID" width="100" height="100" style="fill: none"/>
    </clipPath>
  </defs>
  <g style="clip-path: url(#clip-path)">
    <g>
      <g>
        <path d="M24.90727,29.69131V28.29814a15.23089,15.23089,0,0,0,5.82029,1.12274,13.57451,13.57451,0,0,0,3.44555-.39463,1.22308,1.22308,0,0,0,.86354-.9488,1.203,1.203,0,0,0-.5069-1.18554c-.03859-.02459-3.912-2.8389-2.09621-8.95894,1.5522-5.26757-.08636-10.0528-2.41919-12.45742a5.881,5.881,0,0,0-5.06909-1.97483c-4.563-2.62634-9.58537-2.40561-13.507.6303A13.28781,13.28781,0,0,0,6.72436,18.21684,7.87043,7.87043,0,0,1,4.2816,26.90053a1.18277,1.18277,0,0,0-.48235,1.17692,1.20434,1.20434,0,0,0,.8539.9488,15.27822,15.27822,0,0,0,9.27559-.72811v1.39317A14.58091,14.58091,0,0,0,.012,44.48017a1.208,1.208,0,0,0,1.19555,1.20037H37.63847A1.22909,1.22909,0,0,0,38.834,44.44692,14.5743,14.5743,0,0,0,24.90727,29.69131ZM7.48669,27.01144a10.41326,10.41326,0,0,0,1.53243-9.48273A10.88639,10.88639,0,0,1,12.90223,6.01614c3.28174-2.52555,7.35429-2.61177,11.20415-.24577a1.15937,1.15937,0,0,0,.92524.14943,3.5201,3.5201,0,0,1,3.28167,1.2187c1.837,1.91366,3.13237,5.77364,1.837,10.115-1.39264,4.72747-.06318,7.93731,1.25673,9.75794a13.33075,13.33075,0,0,1-5.00592-.71268A14.33122,14.33122,0,0,0,28.719,18.34255a13.99516,13.99516,0,0,0-2.9742-8.85763,1.16123,1.16123,0,0,0-1.01146-.43276,1.21961,1.21961,0,0,0-.93536.59228c-1.98492,3.34428-4.19686,3.54144-6.75042,3.76353-2.10585.19761-4.50136.40483-6.50127,2.57871a1.06537,1.06537,0,0,0-.29347.63986,10.274,10.274,0,0,0-.12631,1.716,14.37132,14.37132,0,0,0,2.31841,7.95621,13.73207,13.73207,0,0,1-4.95822.71268Zm5.03582-8.66889c0-.35649.00862-.69442.03813-.98778,1.33-1.25733,2.89661-1.383,4.68441-1.55712,2.32285-.19751,5.14668-.45287,7.56588-3.44063a12.16057,12.16057,0,0,1,1.50246,5.99565c0,5.3294-3.09758,9.67173-6.90945,9.67173-3.79734-.0096-6.88143-4.34233-6.88143-9.68185Zm9.98876,11.34876v1.1468c0,2.37145-2.1685,2.62682-3.09374,2.62682s-3.08417-.25537-3.08417-2.62682V29.70573a7.4156,7.4156,0,0,0,3.08417.68862,7.277,7.277,0,0,0,3.09374-.703ZM2.46436,43.286A12.22172,12.22172,0,0,1,14.10271,32.08682c.53058,2.2933,2.52551,3.77272,5.32442,3.77272,2.80558,0,4.81508-1.47942,5.33071-3.77272A12.20812,12.20812,0,0,1,36.38987,43.286Zm0,0" transform="translate(-0.01204 -1.68054)" style="fill: #292f64"/>
        <path d="M31.39739,27.01144a13.36877,13.36877,0,0,1-5.01123-.71268,14.33385,14.33385,0,0,0,2.32323-7.95621,14.03119,14.03119,0,0,0-2.97322-8.85763,1.16944,1.16944,0,0,0-1.013-.43276,1.22639,1.22639,0,0,0-.9388.59228c-1.98578,3.34428-4.19294,3.54144-6.7465,3.76353-2.11127.19761-4.50678.40483-6.50176,2.57871a1.08912,1.08912,0,0,0-.29832.63986,12.29128,12.29128,0,0,0-.11133,1.716,14.37132,14.37132,0,0,0,2.31841,7.95621,13.75867,13.75867,0,0,1-4.95822.71268,10.41326,10.41326,0,0,0,1.53243-9.48273A10.88639,10.88639,0,0,1,12.90223,6.01614c3.28174-2.52555,7.35429-2.61177,11.20415-.24577a1.15937,1.15937,0,0,0,.92524.14943,3.5201,3.5201,0,0,1,3.28167,1.2187c1.837,1.91366,3.13237,5.77364,1.837,10.115-1.40759,4.72747-.06318,7.93731,1.24709,9.75794Zm0,0" transform="translate(-0.01204 -1.68054)" style="fill: #9ec1d6"/>
        <path d="M36.38023,43.286H2.46436A12.22172,12.22172,0,0,1,14.10271,32.08682c.53058,2.2933,2.52551,3.77272,5.32442,3.77272,2.80558,0,4.81508-1.47942,5.33071-3.77272A12.22454,12.22454,0,0,1,36.38023,43.286Zm0,0" transform="translate(-0.01204 -1.68054)" style="fill: #f16e61"/>
        <path d="M22.51127,29.69131v1.1468c0,2.37145-2.1685,2.62682-3.09374,2.62682s-3.08417-.25537-3.08417-2.62682V29.70573a7.4156,7.4156,0,0,0,3.08417.68862,7.277,7.277,0,0,0,3.09374-.703Zm0,0" transform="translate(-0.01204 -1.68054)" style="fill: #efd298"/>
        <path d="M26.31339,18.34255c0,5.32939-3.09758,9.67225-6.90945,9.67225-3.79734,0-6.89638-4.33273-6.89638-9.67225,0-.35649.015-.69442.03863-.98778,1.3295-1.25733,2.90142-1.383,4.68873-1.55712,2.31792-.19751,5.14191-.45287,7.561-3.44063a11.97282,11.97282,0,0,1,1.51752,5.98553Zm0,0" transform="translate(-0.01204 -1.68054)" style="fill: #ffe4a9"/>
      </g>
      <path d="M49.90644,87.7261a5.0147,5.0147,0,0,1-5,5h-37a5.0147,5.0147,0,0,1-5-5v-17.5a5.0147,5.0147,0,0,1,5-5h49.5l-6.0255,6.0497a4.91912,4.91912,0,0,0-1.4745,3.52555V87.7261Zm0,0" transform="translate(-0.01204 -1.68054)" style="fill: #e6e6e6"/>
      <rect x="10.39441" y="80.54555" width="32" height="2.5" style="fill: #3179af"/>
      <rect x="10.39441" y="71.54555" width="32" height="2.5" style="fill: #3179af"/>
      <path d="M49.52405,34.82694V21.89172a4.92287,4.92287,0,0,0-1.4757-3.52834L42.018,12.30874h49.54a5.01875,5.01875,0,0,1,5.004,5.004V34.82694a5.01875,5.01875,0,0,1-5.004,5.004H54.52809a5.00232,5.00232,0,0,1-5.004-5.004Zm0,0" transform="translate(-0.01204 -1.68054)" style="fill: #e6e6e6"/>
      <rect x="57.01808" y="27.64195" width="32.02588" height="2.50202" style="fill: #d84861"/>
      <rect x="57.01808" y="18.63467" width="32.02588" height="2.50202" style="fill: #d84861"/>
      <rect x="10.39441" y="80.54555" width="32" height="2.5" style="fill: #292f64"/>
      <rect x="10.39441" y="71.54555" width="32" height="2.5" style="fill: #292f64"/>
      <path d="M57.40644,63.95059a1.27127,1.27127,0,0,1,1.1505.801,1.23909,1.23909,0,0,1-.27549,1.34949L52.25594,72.1266a3.74647,3.74647,0,0,0-1.09949,2.64924V87.70059a6.252,6.252,0,0,1-6.25,6.25h-37a6.25191,6.25191,0,0,1-6.25-6.25v-17.5a6.25273,6.25273,0,0,1,6.25-6.25Zm-12.5,27.5a3.74466,3.74466,0,0,0,3.75-3.75V74.77584a6.22116,6.22116,0,0,1,1.82524-4.42475l3.89925-3.9005H7.90644a3.74543,3.74543,0,0,0-3.75,3.75v17.5a3.74462,3.74462,0,0,0,3.75,3.75Zm-37,0" transform="translate(-0.01204 -1.68054)" style="fill: #292f64"/>
      <rect x="57.01808" y="27.64195" width="32.02588" height="2.50202" style="fill: #292f64"/>
      <rect x="57.01808" y="18.63467" width="32.02588" height="2.50202" style="fill: #292f64"/>
      <path d="M45.04592,13.58526l3.9024,3.90241A6.22613,6.22613,0,0,1,50.77506,21.916V34.85245a3.74849,3.74849,0,0,0,3.753,3.753H91.558a3.74848,3.74848,0,0,0,3.753-3.753V17.3383a3.74768,3.74768,0,0,0-3.753-3.753ZM91.558,41.10751H54.52809A6.25783,6.25783,0,0,1,48.273,34.85245V21.916a3.75172,3.75172,0,0,0-1.10039-2.6514l-6.03038-6.03036a1.24423,1.24423,0,0,1,.87572-2.12673h49.54a6.257,6.257,0,0,1,6.255,6.25506V34.87672a6.26839,6.26839,0,0,1-6.255,6.23079Z" transform="translate(-0.01204 -1.68054)" style="fill: #292f64"/>
      <g>
        <path d="M99.30868,97.86876l-35.81061.11433V92.21853a7.259,7.259,0,0,1,2.03626-5.08042c3.72737-3.72736,7.792-.34208,9.48707-5.4224a5.5127,5.5127,0,0,0,.22776-2.26053V82.053a6.2131,6.2131,0,1,0,12.4262,0v-.56512a4.60324,4.60324,0,0,0,4.51965,3.504,7.18408,7.18408,0,0,1,7.22793,7.11676Zm0,0" transform="translate(-0.01204 -1.68054)" style="fill: #fff"/>
        <path d="M99.25307,91.39674A7.206,7.206,0,0,0,97.107,86.312c-3.38978-3.38541-6.10093-.78837-8.58447-3.61311a4.202,4.202,0,0,1-1.6955,1.46687A6.21036,6.21036,0,0,1,75.0758,81.68184c-.10988,0,.11347,0-.45155-.113-2.03189,4.51977-5.98791.90139-9.715,5.42243a7.10335,7.10335,0,0,0-1.58108,4.51981v5.76018l35.81063-.11433Zm0,0" transform="translate(-0.01204 -1.68054)" style="fill: #1fa6f8"/>
        <path d="M89.82148,74.03216c-1.92321,9.37859-15.81584,10.61772-17.06059.22338-4.51539-2.82026-1.13-6.43853-1.13-6.43853l-.10909-1.58078-.11426-2.59691A8.31406,8.31406,0,0,1,74.11867,56.972c5.19512-4.40541,13.10592.11429,13.10592.11429,4.29194,1.35346,4.29194,6.43864,3.95039,9.14991a8.78866,8.78866,0,0,1-.33769,1.695c3.504,3.16238-1.01581,6.1009-1.01581,6.1009Zm0,0" transform="translate(-0.01204 -1.68054)" style="fill: #ffe4a9"/>
        <path d="M86.4538,84.31949c-1.14194,5.5687-9.39093,6.30446-10.13.13264a2.3578,2.3578,0,0,1-.671-3.823l-.06478-.93861-.06784-1.542A4.93665,4.93665,0,0,1,77.13,74.18975c3.08469-2.61579,7.78187.06786,7.78187.06786,2.54841.80364,2.54841,3.823,2.34561,5.43292A5.21791,5.21791,0,0,1,87.057,80.697c2.08055,1.87772-.60315,3.62251-.60315,3.62251Zm0,0" transform="translate(-0.01204 -1.68054)" style="fill: #ffe4a9"/>
        <path d="M91.175,66.23623s-3.614-1.69552-4.51584-3.38977c0,0-8.81307,5.19827-15.13738,3.38977l-.11426-2.59691A8.31406,8.31406,0,0,1,74.11867,56.972c5.19512-4.40541,13.10592.11429,13.10592.11429,4.29194,1.35346,4.29194,6.43864,3.95039,9.14991Zm0,0" transform="translate(-0.01204 -1.68054)" style="fill: #fff"/>
        <path d="M91.11528,66.68609s-3.617-1.69113-4.51979-3.38617c0,0-8.81218,5.19471-15.13739,3.4992l-.11432-2.597a8.3181,8.3181,0,0,1,2.71123-6.666c5.19471-4.40675,13.1055,0,13.1055,0,4.29239,1.357,4.29239,6.43867,3.95477,9.14994Zm0,0" transform="translate(-0.01204 -1.68054)" style="fill: #bcd6ef"/>
        <path d="M99.76371,91.99556v-.90707a7.85712,7.85712,0,0,0-2.25915-4.51584l-.1144-.11426c-2.82462-2.71127-5.30816-1.80851-7.00365-2.48351a4.12615,4.12615,0,0,1-2.374-2.71479v-.22424a14.23111,14.23111,0,0,1-.11426-2.25917,9.62844,9.62844,0,0,0,2.374-4.52114c.565-.45063,2.26052-1.804,2.37476-3.61256a3.84766,3.84766,0,0,0-1.24475-3.049A13.76178,13.76178,0,0,0,91.63,66.12272c.22424-2.2605.33774-5.76014-1.58114-8.0202-1.8085-2.14624-9.605-5.42288-14.68974-2.82474A8.3906,8.3906,0,0,0,73.77791,56.407c-3.72829,3.16323-2.82118,7.56868-2.71116,9.71568l.11333,1.357A5.24347,5.24347,0,0,0,70.04962,71.208a5.083,5.083,0,0,0,2.374,3.27629,8.50663,8.50663,0,0,0,2.26053,4.97089v.22293a4.25922,4.25922,0,0,1-2.374,4.069,12.62522,12.62522,0,0,1-2.37353.452,6.97946,6.97946,0,0,0-4.74439,2.25927,7.61875,7.61875,0,0,0-2.25927,5.42288v5.87317a.8303.8303,0,0,0,.22783.45155c.113.11347.22294.11347.45063.11347L99.42294,98.206a.5313.5313,0,0,0,.565-.565ZM74.834,84.913c.62127,2.76107,3.4969,4.42651,6.50822,4.42651,1.66452,0,3.65173-.3754,4.79624-1.60556a4.93763,4.93763,0,0,0,1.70641-2.79954,3.77558,3.77558,0,0,0,3.27292,1.33417c3.32577,0,6.57479,2.37818,6.57479,5.65626v4.07778l-32.76105.3833V92.3078a5.787,5.787,0,0,1,1.75505-4.2199c2.80586-2.76107,6.64946-.7955,8.52361-3.66009ZM86.46831,79.9058c0,1.15013.7328,3.55029-1.35655,5.63953a5.31365,5.31365,0,0,1-3.65505,1.56706,5.23648,5.23648,0,0,1-5.21814-5.22209v-1.251c3.028,2.08405,7.30739,1.56184,10.22974-.73355ZM76.64709,56.91958c3.302-1.60232,11.21062-.10056,12.61158,3.90429a10.7184,10.7184,0,0,1,.4,4.00434,11.51191,11.51191,0,0,1-3.20144-2.50254c-.10053-.10135-.20187-.20149-.29923-.20149a.61035.61035,0,0,0-.40324.10014c-3.30238,2.00279-8.80512,3.90428-12.60769,3.10448,0-1.90143-.90412-6.20512,3.5-8.40922ZM74.015,73.61934a3.26822,3.26822,0,0,1-1.8109-2.3095,4.21569,4.21569,0,0,1,.90753-2.71158c.09663-.10161.09663-.20252.09663-.40465v-.80285a12.27449,12.27449,0,0,0,2.01036.20255c4.52245,0,9.34479-2.41111,10.75062-3.217a12.39767,12.39767,0,0,0,3.6148,2.61364c-.0966.70121-.19834,1.10589-.19834,1.10589a.75077.75077,0,0,0,.10174.50246,2.62619,2.62619,0,0,1,1.00416,2.107c-.10093,1.40625-1.8109,2.51321-1.90861,2.61373-.10054.1017-.20265.19942-.20265.30036-1.60837,7.93855-13.16172,8.63976-14.16671.30426,0-.10216-.10091-.20265-.19863-.30426Z" transform="translate(-0.01204 -1.68054)" style="fill: #222f59"/>
      </g>
    </g>
  </g>
</svg>
