<svg id="Layer_1" data-name="Layer 1" xmlns="http://www.w3.org/2000/svg" width="35" height="35" viewBox="0 0 35 35">
  <g>
    <path d="M19.91628,34.95538H4.81423A4.81969,4.81969,0,0,1,0,30.14114V4.85886A4.81969,4.81969,0,0,1,4.81423.04462H19.91628a4.81969,4.81969,0,0,1,4.81423,4.81424V8.04379a.97266.97266,0,1,1-1.94531,0V4.85886a2.87214,2.87214,0,0,0-2.86892-2.86892H4.81423A2.87214,2.87214,0,0,0,1.94532,4.85886V30.14114a2.87214,2.87214,0,0,0,2.86891,2.86892H19.91628a2.87214,2.87214,0,0,0,2.86892-2.86892V26.95621a.97266.97266,0,1,1,1.94531,0v3.18493A4.81969,4.81969,0,0,1,19.91628,34.95538Z"/>
    <path d="M34.76153,16.86207l-4.13712-4.761a.97266.97266,0,0,0-1.4684,1.276l2.73751,3.15031H14.56433a.97266.97266,0,1,0,0,1.94532H31.96314l-2.72458,3.30039a.97267.97267,0,1,0,1.50021,1.23843l4.03862-4.89226A.97252.97252,0,0,0,34.76153,16.86207Z"/>
  </g>
</svg>
