<svg id="Layer_1" data-name="Layer 1" xmlns="http://www.w3.org/2000/svg" width="35" height="21.71128" viewBox="0 0 35 21.71128">
  <g>
    <path d="M15.91026,28.35564a.97326.97326,0,0,1-.96-1.13325L18.266,7.4559a.97224.97224,0,0,1,1.91768.32167L16.868,27.54406A.97253.97253,0,0,1,15.91026,28.35564Z" transform="translate(0 -6.64436)"/>
    <path d="M26.02441,26.367a.97223.97223,0,0,1-.64476-1.70025l7.39649-6.54626a.82858.82858,0,0,0,0-1.24092l-7.39649-6.54626A.97224.97224,0,0,1,26.66842,8.8772l7.39648,6.54627a2.773,2.773,0,0,1,0,4.15293l-7.39648,6.54636A.96856.96856,0,0,1,26.02441,26.367Z" transform="translate(0 -6.64436)"/>
    <path d="M8.97559,26.367a.96856.96856,0,0,1-.644-.24419L.9351,19.57649a2.77313,2.77313,0,0,1,0-4.153L8.33158,8.8772a.97224.97224,0,0,1,1.28877,1.45606L2.22386,16.87952a.82858.82858,0,0,0,0,1.24092L9.62035,24.6667A.97223.97223,0,0,1,8.97559,26.367Z" transform="translate(0 -6.64436)"/>
  </g>
</svg>
