<svg xmlns="http://www.w3.org/2000/svg" width="35" height="35" viewBox="0 0 35 35">
  <g id="Rough_Layer" data-name="Rough Layer">
    <g>
      <path d="M17.51143,20.69481a7.32545,7.32545,0,0,1-5.36023-2.3022.97537.97537,0,1,1,1.41453-1.3433,5.44012,5.44012,0,0,0,7.871.02134,5.53505,5.53505,0,0,0,.42669-.50155A.9752.9752,0,0,1,23.422,17.74172a7.465,7.465,0,0,1-.57812.67965A7.32776,7.32776,0,0,1,17.51143,20.69481Z"/>
      <circle cx="22.14023" cy="10.34631" r="1.95056"/>
      <circle cx="12.85981" cy="10.34631" r="1.95056"/>
      <path d="M25.29253,33.80433a.9757.9757,0,0,1-.56-.17677L15.907,27.43739H.97528A.97521.97521,0,0,1,0,26.4621V2.171a.97521.97521,0,0,1,.97528-.97528H34.02472A.97521.97521,0,0,1,35,2.171V26.4621a.97521.97521,0,0,1-.97528.97529H26.26781v5.39166a.97558.97558,0,0,1-.97528.97528Zm-23.342-8.31751H16.215a.97535.97535,0,0,1,.56.17677l7.54223,5.29014V26.4621a.97521.97521,0,0,1,.97528-.97528h7.75691V3.14623H1.95056Z"/>
    </g>
  </g>
</svg>
