<svg id="Layer_1" data-name="Layer 1" xmlns="http://www.w3.org/2000/svg" width="35" height="35" viewBox="0 0 35 35">
  <g>
    <path d="M17.5,35A17.5,17.5,0,1,1,35,17.5,17.51986,17.51986,0,0,1,17.5,35Zm0-33.05556A15.55556,15.55556,0,1,0,33.05556,17.5,15.57315,15.57315,0,0,0,17.5,1.94444Z"/>
    <g>
      <path d="M17.51405,27.13032a8.825,8.825,0,0,1-6.45816-2.77406.97225.97225,0,0,1,1.41011-1.3389,6.9599,6.9599,0,0,0,10.07019.02715,7.0152,7.0152,0,0,0,.54535-.641.9722.9722,0,1,1,1.55423,1.16837,8.97718,8.97718,0,0,1-.69679.81927A8.82981,8.82981,0,0,1,17.51405,27.13032Z"/>
      <circle cx="23.23744" cy="14.56843" r="1.94444"/>
      <circle cx="11.76255" cy="14.56843" r="1.94444"/>
    </g>
  </g>
</svg>
