<svg id="Layer_1" data-name="Layer 1" xmlns="http://www.w3.org/2000/svg" width="35" height="33.92201" viewBox="0 0 35 33.92201">
  <g>
    <path d="M21.73078,20.14076a.97187.97187,0,0,0-1.3613.19312,6.08072,6.08072,0,0,1-.47159.55447,6.02,6.02,0,0,1-8.71031-.02355.97224.97224,0,0,0-1.4101,1.33889,7.96466,7.96466,0,0,0,11.5233.03115,8.02292,8.02292,0,0,0,.62312-.73278A.9722.9722,0,0,0,21.73078,20.14076Z" transform="translate(0 -0.53899)"/>
    <circle cx="20.59915" cy="12.95739" r="1.71403"/>
    <circle cx="10.48398" cy="13.49638" r="1.71404" transform="translate(-2.02651 1.31463) rotate(-9.21749)"/>
    <path d="M15.5416,29.67765A13.59711,13.59711,0,1,1,29.13866,16.08059a.97222.97222,0,1,0,1.94444,0A15.54155,15.54155,0,1,0,15.5416,31.6221a.97223.97223,0,0,0,0-1.94445Z" transform="translate(0 -0.53899)"/>
    <path d="M34.02778,27.219H29.70253V22.89374a.97223.97223,0,0,0-1.94445,0V27.219H23.43283a.97223.97223,0,0,0,0,1.94445h4.32525v4.32534a.97223.97223,0,1,0,1.94445,0V29.16344h4.32525a.97223.97223,0,0,0,0-1.94445Z" transform="translate(0 -0.53899)"/>
  </g>
</svg>
