<svg id="Layer_1" data-name="Layer 1" xmlns="http://www.w3.org/2000/svg" width="30.93793" height="35" viewBox="0 0 30.93793 35">
  <path d="M32.948,11.426c-.0025-.01194-.00785-.02294-.0108-.03476a.96807.96807,0,0,0-.04928-.15231c-.00793-.01825-.01939-.03461-.02842-.05235a.972.972,0,0,0-.06668-.11646c-.01407-.02015-.03135-.03781-.047-.05692a.97286.97286,0,0,0-.08055-.09029l-.01456-.01633L20.9324.25283A.97236.97236,0,0,0,20.27843,0H10.44522A2.86053,2.86053,0,0,0,7.588,2.85733V5.53654l-2.55171-.393a.97794.97794,0,0,0-.148-.0113A2.86046,2.86046,0,0,0,2.031,7.9895V27.22934a2.86053,2.86053,0,0,0,2.85723,2.85733.97794.97794,0,0,0,.148-.0113l2.55171-.393V32.124A2.87921,2.87921,0,0,0,10.46392,35H30.11174A2.86053,2.86053,0,0,0,32.969,32.14267V11.62594A.97449.97449,0,0,0,32.948,11.426ZM21.25065,3.17008l8.23143,7.48363H22.16353a.91388.91388,0,0,1-.91288-.91288ZM4.827,28.14023a.91411.91411,0,0,1-.85155-.91089V7.9895A.91409.91409,0,0,1,4.827,7.07871L7.588,7.504V27.715Zm25.28471,4.91533H10.46392a.93261.93261,0,0,1-.93149-.93159V2.85733a.91387.91387,0,0,1,.91279-.91289h8.861V9.74083a2.86062,2.86062,0,0,0,2.85732,2.85733h8.861V32.14267A.91387.91387,0,0,1,30.11174,33.05556Z" transform="translate(-2.03103)"/>
</svg>
