<svg xmlns="http://www.w3.org/2000/svg" width="35" height="35" viewBox="0 0 35 35">
  <g id="Layer_1" data-name="Layer 1">
    <g>
      <path d="M28.00152,14.18913a.97226.97226,0,0,0-.97222.97222V29.39263a3.66709,3.66709,0,0,1-3.66293,3.66293H5.62246a3.66708,3.66708,0,0,1-3.66292-3.66293V11.64872A3.66708,3.66708,0,0,1,5.62246,7.9858H19.85384a.97223.97223,0,0,0,0-1.94445H5.62246A5.61369,5.61369,0,0,0,.0151,11.64872V29.39263A5.61369,5.61369,0,0,0,5.62246,35H23.36637a5.61369,5.61369,0,0,0,5.60737-5.60737V15.16135A.97226.97226,0,0,0,28.00152,14.18913Z"/>
      <path d="M34.98139.93738a.97341.97341,0,0,0-.01553-.15417C34.96.75375,34.94925.72641,34.94084.698a.95637.95637,0,0,0-.02991-.09632A.95414.95414,0,0,0,34.86317.5103c-.0138-.02541-.02507-.05173-.0413-.07609a.97414.97414,0,0,0-.10055-.12376c-.00709-.00758-.012-.0164-.01935-.02382L34.701.28586A.97578.97578,0,0,0,34.553.16425C34.53046.14918,34.506.139,34.48255.126A.96112.96112,0,0,0,34.38561.0747a.95553.95553,0,0,0-.09726-.0302c-.02815-.00837-.05508-.01938-.08424-.0252A.9769.9769,0,0,0,34.014.00013L34.01268,0H20.5418a.97222.97222,0,0,0,0,1.94444H31.65665L11.88959,21.60574a.97219.97219,0,1,0,1.37118,1.37858L33.04046,3.31046V14.54574a.97222.97222,0,1,0,1.94444,0V.97222C34.9849.96028,34.98182.94921,34.98139.93738Z"/>
    </g>
  </g>
</svg>
