<svg id="Layer_1" data-name="Layer 1" xmlns="http://www.w3.org/2000/svg" width="35" height="35" viewBox="0 0 35 35">
  <g>
    <path d="M28.89693,0H6.103A6.10991,6.10991,0,0,0,0,6.10307V28.89693A6.10991,6.10991,0,0,0,6.103,35h22.794A6.10994,6.10994,0,0,0,35,28.89693V6.10307A6.10994,6.10994,0,0,0,28.89693,0Zm4.15863,28.89693a4.16334,4.16334,0,0,1-4.15863,4.15863H6.103a4.16331,4.16331,0,0,1-4.15853-4.15863V6.10307A4.16331,4.16331,0,0,1,6.103,1.94444h22.794a4.16334,4.16334,0,0,1,4.15863,4.15863Z"/>
    <path d="M24.086,16.52778H18.47222V10.914a.97222.97222,0,0,0-1.94444,0v5.61383H10.914a.97222.97222,0,0,0,0,1.94444h5.61383v5.61383a.97222.97222,0,0,0,1.94444,0V18.47222H24.086a.97222.97222,0,0,0,0-1.94444Z"/>
  </g>
</svg>
