<svg id="Layer_1" data-name="Layer 1" xmlns="http://www.w3.org/2000/svg" width="35" height="31.3131" viewBox="0 0 35 31.3131">
  <g>
    <path d="M25.0981,18.51011a5.75559,5.75559,0,1,0-5.75552-5.75552A5.76208,5.76208,0,0,0,25.0981,18.51011Zm0-8.94994a3.19436,3.19436,0,1,1-3.19429,3.19442A3.19811,3.19811,0,0,1,25.0981,9.56017Z" transform="translate(0 -1.84345)"/>
    <path d="M4.11111,33.15655H31.432A3.572,3.572,0,0,0,35,29.58858V28.797a8.48114,8.48114,0,0,0-8.47146-8.47159H20.31831a10.13181,10.13181,0,0,0-6.59945-2.43855H10.17891a10.13162,10.13162,0,0,0-6.5994,2.43855L1.42106,22.8866A10.11468,10.11468,0,0,0,0,28.06584v.9796a4.08535,4.08535,0,0,0,.30569,1.54987S.72208,33.15655,4.11111,33.15655ZM18.7643,30.59531H4.11111a1.55156,1.55156,0,0,1-1.54988-1.54987v-.9796A7.62633,7.62633,0,0,1,10.17891,20.448h3.53995a7.62635,7.62635,0,0,1,7.6178,7.61779v.9796a1.55155,1.55155,0,0,1-1.54987,1.54987Zm13.67447-1.00673A1.00784,1.00784,0,0,1,31.432,30.59531H23.59222a4.08534,4.08534,0,0,0,.30568-1.54987v-.9796a10.11461,10.11461,0,0,0-1.42109-5.17924h4.05173A5.917,5.917,0,0,1,32.43877,28.797Z" transform="translate(0 -1.84345)"/>
    <path d="M11.94889,15.47965a6.8181,6.8181,0,1,0-6.81817-6.818A6.82584,6.82584,0,0,0,11.94889,15.47965Zm0-11.075A4.25687,4.25687,0,1,1,7.692,8.66161,4.26177,4.26177,0,0,1,11.94889,4.40469Z" transform="translate(0 -1.84345)"/>
  </g>
</svg>
