<svg id="Layer_1" data-name="Layer 1" xmlns="http://www.w3.org/2000/svg" width="22.39681" height="35" viewBox="0 0 22.39681 35">
  <g>
    <path d="M17.5,22.39681a6.03339,6.03339,0,0,0,6.02654-6.02654V6.02654a6.02654,6.02654,0,0,0-12.05308,0V16.37027A6.03339,6.03339,0,0,0,17.5,22.39681ZM13.4179,6.02654a4.0821,4.0821,0,0,1,8.1642,0V16.37027a4.0821,4.0821,0,1,1-8.1642,0Z" transform="translate(-6.3016)"/>
    <path d="M27.72618,13.97446a.97227.97227,0,0,0-.97222.97222v1.23417a9.254,9.254,0,0,1-18.50792,0V14.94668a.97222.97222,0,0,0-1.94444,0v1.23417A11.21162,11.21162,0,0,0,16.52778,27.33439v5.72117H11.21806a.97222.97222,0,0,0,0,1.94444H23.795a.97222.97222,0,1,0,0-1.94444H18.47222V27.33439A11.21162,11.21162,0,0,0,28.6984,16.18085V14.94668A.97227.97227,0,0,0,27.72618,13.97446Z" transform="translate(-6.3016)"/>
  </g>
</svg>
