<svg id="Layer_1" data-name="Layer 1" xmlns="http://www.w3.org/2000/svg" width="35" height="35" viewBox="0 0 35 35">
  <path d="M27.73271,2.66058H7.26731A4.60667,4.60667,0,0,0,2.66059,7.26723V27.7327a4.60672,4.60672,0,0,0,4.60672,4.60672h20.4654a4.60671,4.60671,0,0,0,4.60671-4.60672V7.26723A4.60666,4.60666,0,0,0,27.73271,2.66058ZM23.4133,18.40107h-5.012v5.012a.90107.90107,0,0,1-1.80214,0v-5.012H11.58658a.90107.90107,0,0,1,0-1.80214h5.01255v-5.012a.90107.90107,0,0,1,1.80214,0v5.012h5.012a.90107.90107,0,0,1,0,1.80214Z"/>
</svg>
