<svg id="Layer_1" data-name="Layer 1" xmlns="http://www.w3.org/2000/svg" width="35" height="35" viewBox="0 0 35 35">
  <g>
    <path d="M26.35536,14.53479a7.2674,7.2674,0,1,1,7.26742-7.26742A7.27561,7.27561,0,0,1,26.35536,14.53479Zm0-12.58652a5.31913,5.31913,0,1,0,5.31916,5.3191A5.32514,5.32514,0,0,0,26.35536,1.94827Z"/>
    <path d="M29.738,26.14681a9.94468,9.94468,0,0,1-3.51373-9.0562.97416.97416,0,0,0-1.938-.20044A12.012,12.012,0,0,0,28.40865,27.5711c.3.28006.43912.5489.37215.71918a.5191.5191,0,0,1-.45168.28016H13.1865c-.188,0-.70577,0-1.41935.00009h-.037c-1.92829.00038-5.25413.00153-7.4758.00581H4.25054c-.56507,0-.8555-.2442-.91277-.40878-.07116-.20434.20586-.4433.29252-.51161,3.74794-2.95893,4.25327-5.907,4.25327-8.40066V13.49592c0-4.07214,4.61039-7.11487,8.73257-7.11487a.97414.97414,0,0,0,0-1.94827c-5.05189,0-10.68083,3.72206-10.68083,9.06314v5.75937c0,1.43238,0,4.09869-3.51221,6.87145a2.39567,2.39567,0,0,0-.92524,2.68143A2.78394,2.78394,0,0,0,4.25073,30.5246H4.258c1.90546-.00371,4.62361-.005,6.57483-.00561A5.05453,5.05453,0,0,0,16.06181,35a5.35287,5.35287,0,0,0,5.38436-4.4813h6.883a2.47019,2.47019,0,0,0,2.2641-1.514A2.51806,2.51806,0,0,0,29.738,26.14681ZM16.06181,33.05173a3.04044,3.04044,0,0,1-3.24537-2.53217l6.60955.00428A3.29211,3.29211,0,0,1,16.06181,33.05173Z"/>
  </g>
</svg>
