<svg id="Layer_1" data-name="Layer 1" xmlns="http://www.w3.org/2000/svg" width="35" height="34.84563" viewBox="0 0 35 34.84563">
  <path d="M34.71526,10.087,24.99011.36192a.97222.97222,0,0,0-1.375.00009,7.8101,7.8101,0,0,0-2.27969,4.98606l-5.63328,5.63338a10.36235,10.36235,0,0,0-2.03616-.20138,10.19815,10.19815,0,0,0-7.25871,3.0061.97231.97231,0,0,0,0,1.375L12.397,21.15082,0,33.54783v1.375H1.375l12.397-12.397,5.77615,5.77611a.97248.97248,0,0,0,.68749.28473h.00019a.97231.97231,0,0,0,.68758-.28511,10.27564,10.27564,0,0,0,2.6588-9.90954l4.683-4.683a7.85727,7.85727,0,0,0,6.44961-2.24665.9722.9722,0,0,0,.00047-1.37535ZM29.16354,11.8159a5.84625,5.84625,0,0,1-1.06252-.09646.97226.97226,0,0,0-.86465.2685l-5.43931,5.43932a.97229.97229,0,0,0-.235.99443,8.33167,8.33167,0,0,1-1.36624,7.77806L8.50924,14.51315A8.25838,8.25838,0,0,1,13.666,12.72451a8.38909,8.38909,0,0,1,2.09987.26566.973.973,0,0,0,.93111-.25369l6.27956-6.27957a.97267.97267,0,0,0,.28455-.66745,5.87091,5.87091,0,0,1,1.09774-3.30888l8.23758,8.23749A5.86677,5.86677,0,0,1,29.16354,11.8159Z" transform="translate(0 -0.07718)"/>
</svg>
