<svg id="Layer_1" data-name="Layer 1" xmlns="http://www.w3.org/2000/svg" width="35" height="30.42619" viewBox="0 0 35 30.42619">
  <g>
    <path d="M34.02778,25.60856H29.83991V21.42069a.97222.97222,0,0,0-1.94444,0v4.18787H23.7077a.97223.97223,0,1,0,0,1.94445h4.18777v4.18786a.97222.97222,0,0,0,1.94444,0V27.553h4.18787a.97223.97223,0,0,0,0-1.94445Z" transform="translate(0 -2.28691)"/>
    <path d="M18.09178,25.62641H13.26029a.97184.97184,0,0,0-.57345.18713L7.19321,29.82662v-3.228a.97225.97225,0,0,0-.68711-.92949l-.20954-.06428a.97448.97448,0,0,0-.14241-.03219,4.96818,4.96818,0,0,1-4.20971-4.88883V9.174A4.94824,4.94824,0,0,1,6.887,4.23135H22.95289A4.94824,4.94824,0,0,1,27.89547,9.174v6.64871a.97222.97222,0,1,0,1.94444,0V9.174a6.89484,6.89484,0,0,0-6.887-6.88711H6.887A6.89484,6.89484,0,0,0,0,9.174V20.68384a6.93149,6.93149,0,0,0,5.24877,6.69039v4.36664a.97223.97223,0,0,0,1.54568.78509l6.78315-4.9551h4.51418a.97223.97223,0,1,0,0-1.94445Z" transform="translate(0 -2.28691)"/>
  </g>
</svg>
