<svg id="Layer_1" data-name="Layer 1" xmlns="http://www.w3.org/2000/svg" width="35" height="32.39483" viewBox="0 0 35 32.39483">
  <g>
    <path d="M32.34927,33.69741h-19.547a2.65366,2.65366,0,0,1-2.65063-2.65073V16.60226a2.65364,2.65364,0,0,1,2.65063-2.65064h3.42718L17.026,11.9824a.97228.97228,0,0,1,.9013-.60764h9.19481a.97226.97226,0,0,1,.88193.563l.93443,2.01384h3.41085A2.65366,2.65366,0,0,1,35,16.60226V31.04668A2.65368,2.65368,0,0,1,32.34927,33.69741Zm-19.547-17.80134a.707.707,0,0,0-.70619.70619V31.04668a.70706.70706,0,0,0,.70619.70629h19.547a.70708.70708,0,0,0,.70629-.70629V16.60226a.70706.70706,0,0,0-.70629-.70619H28.31778a.97225.97225,0,0,1-.88193-.563l-.93444-2.01384H18.58274l-.79648,1.96922a.97228.97228,0,0,1-.9013.60764Z" transform="translate(0 -1.30259)"/>
    <path d="M22.57578,28.83782a4.83429,4.83429,0,1,1,4.83434-4.83424A4.83968,4.83968,0,0,1,22.57578,28.83782Zm0-7.72413a2.88985,2.88985,0,1,0,2.88989,2.88989A2.89309,2.89309,0,0,0,22.57578,21.11369Z" transform="translate(0 -1.30259)"/>
    <circle cx="26.37596" cy="6.0953" r="0.9911"/>
    <circle cx="26.37596" cy="0.9911" r="0.9911"/>
    <circle cx="21.29899" cy="0.9911" r="0.9911"/>
    <circle cx="16.22202" cy="0.9911" r="0.9911"/>
    <circle cx="11.14504" cy="0.9911" r="0.9911"/>
    <circle cx="6.06807" cy="0.9911" r="0.9911"/>
    <circle cx="0.9911" cy="0.9911" r="0.9911"/>
    <circle cx="0.9911" cy="6.09365" r="0.9911"/>
    <circle cx="0.9911" cy="11.1962" r="0.9911"/>
    <circle cx="0.9911" cy="16.28071" r="0.9911"/>
    <circle cx="0.9911" cy="21.32531" r="0.9911"/>
    <circle cx="0.9911" cy="26.42712" r="0.9911"/>
    <circle cx="6.06487" cy="26.42712" r="0.9911"/>
  </g>
</svg>
