<svg id="Layer_1" data-name="Layer 1" xmlns="http://www.w3.org/2000/svg" width="34.61946" height="35" viewBox="0 0 34.61946 35">
  <path d="M34.52174.28167a.972.972,0,0,0-.98152-.23508l-32.675,10.493a.97222.97222,0,0,0-.06437,1.82814L16.291,18.57441l6.36909,15.81653A.97215.97215,0,0,0,23.56167,35l.03987-.00076a.97221.97221,0,0,0,.88877-.68283L34.76584,1.26092A.972.972,0,0,0,34.52174.28167ZM30.388,3.10111,16.80392,16.68519,4.0282,11.56607Zm-6.944,28.031L18.17977,18.05929,31.71536,4.52369Z" transform="translate(-0.19027)"/>
</svg>
