<svg id="Layer_1" data-name="Layer 1" xmlns="http://www.w3.org/2000/svg" width="35" height="35" viewBox="0 0 35 35">
  <g>
    <path d="M20.24131,35h-5.371a2.53873,2.53873,0,0,1-2.80565-2.71826c0-.71749-.13814-2.46217-1.41791-3.166-.56207-.30912-1.62323-.47849-3.48954.46682l-.06168.03112a2.56208,2.56208,0,0,1-3.53831-1.11135c-.44329-.73875-2.26407-4.07905-2.48931-4.45421-.47555-.79273-.9826-2.332.96418-3.73368,1.04066-.74927,2.0817-1.94582,1.88226-3.05727a5.25018,5.25018,0,0,0-2.03369-2.67556c-.14858-.126-.28673-.24346-.40894-.35277-1.41487-1.26571-.59358-2.72575-.19906-3.4274,0,0,2.17829-3.8889,2.55554-4.49263.593-.94891,1.90882-1.63339,3.82277-.70943,1.43309.69178,2.29955.74975,2.99142.20115a3.672,3.672,0,0,0,1.59818-3.12777A2.89982,2.89982,0,0,1,13.11724.55083,2.15081,2.15081,0,0,1,14.5824.00071h5.65891c1.71451,0,2.61114.92,2.66522,2.73448.0019.06462.00323.1242.007.17667.00589.08227.00892.1854.01177.30552A2.82228,2.82228,0,0,0,24.07509,5.8251c1.2699.79425,3.26886-.0315,3.69184-.3243A2.19778,2.19778,0,0,1,29.53,5.17953a2.8326,2.8326,0,0,1,1.78472,1.49078c.44841.83144,2.65972,4.8379,2.65972,4.8379,1.04559,1.90057-.58428,2.96609-1.28014,3.42114-1.72608,1.12852-1.61241,2.13522-1.575,2.466.15352,1.35832.37877,2.29623,2.04412,2.9307a1.83951,1.83951,0,0,1,1.10993,1.092,4.08807,4.08807,0,0,1-.416,2.51142c-.94445,1.7646-2.27,4.20666-2.874,5.03735-1.20424,1.6553-2.547,1.058-3.626.57839-1.44466-.64225-2.37564-.81446-2.76674-.512-.1076.08321-.45212.33551-.51334.38147-.68913.51728-1.17842,1.03336-1.294,3.05362A2.33121,2.33121,0,0,1,20.24131,35ZM9.60549,26.932a4.046,4.046,0,0,1,1.9777.481c2.18835,1.20357,2.4246,3.8057,2.4246,4.86865,0,.52688.085.77509.86248.77509h5.371c.50876,0,.56208,0,.60193-.69947.17819-3.11524,1.34068-3.966,2.27469-4.64966.09507-.06964.19033-.13929.28464-.21206,1.50729-1.165,3.69355-.19308,4.74426.27392a3.68685,3.68685,0,0,0,.99208.34138c.00038-.00018.09071-.03662.27288-.287.39509-.5432,1.3143-2.16206,2.7324-4.81153l.12353-.23047a1.44828,1.44828,0,0,0,.19-.64538,4.75893,4.75893,0,0,1-3.26943-4.5231c-.13018-1.1528.18806-2.83638,2.44263-4.31055.637-.41644.7304-.599.74159-.62679a1.09219,1.09219,0,0,0-.10057-.23132L31.70565,11.418c-.65639-1.18877-1.64809-2.98535-2.10125-3.82524a.97616.97616,0,0,0-.52754-.52355.24745.24745,0,0,0-.2038.02932c-.60554.4189-3.54364,1.8017-5.828.37449a4.70457,4.70457,0,0,1-2.06234-4.20837c-.00209-.08425-.00323-.15665-.0074-.21443-.00551-.07638-.00835-.1632-.0112-.25732-.02163-.72812-.0444-.849-.72281-.849H14.5342c-.23208.02382-.33456.43779-.35277.8213A5.59945,5.59945,0,0,1,11.84981,7.323c-1.9297,1.53-4.19186.4374-5.04371.02637-.46833-.22591-1.07918-.41159-1.33-.01072-.35258.56407-1.61413,2.81675-2.22042,3.89925l-.28939.51625c-.45068.80137-.39224.85355-.19887,1.02652.11063.09906.23588.20523.37042.31928a6.85355,6.85355,0,0,1,2.68894,3.81394c.45182,2.51673-1.92116,4.44615-2.65915,4.97748-.78732.56682-.63115.82737-.43323,1.15708.24556.40961,2.06652,3.74981,2.48893,4.45412.29812.497.56113.59405,1.00309.37307l.05275-.02657A7.40813,7.40813,0,0,1,9.60549,26.932Z"/>
    <path d="M17.50009,24.061A6.561,6.561,0,1,1,24.061,17.49995,6.56847,6.56847,0,0,1,17.50009,24.061Zm0-11.17883a4.61783,4.61783,0,1,0,4.61769,4.61778A4.62311,4.62311,0,0,0,17.50009,12.88217Z"/>
  </g>
</svg>
