<svg id="Layer_1" data-name="Layer 1" xmlns="http://www.w3.org/2000/svg" width="35" height="35" viewBox="0 0 35 35">
  <g>
    <path d="M34.02778,7.77778A.97227.97227,0,0,0,35,6.80556V.97222A.97227.97227,0,0,0,34.02778,0H28.19444a.97227.97227,0,0,0-.97222.97222V2.60744H7.77778V.97222A.97227.97227,0,0,0,6.80556,0H.97222A.97227.97227,0,0,0,0,.97222V6.80556a.97227.97227,0,0,0,.97222.97222H2.91667V27.22222H.97222A.97227.97227,0,0,0,0,28.19444v5.83334A.97227.97227,0,0,0,.97222,35H6.80556a.97227.97227,0,0,0,.97222-.97222V32.08333H27.22222v1.94445A.97227.97227,0,0,0,28.19444,35h5.83334A.97227.97227,0,0,0,35,34.02778V28.19444a.97227.97227,0,0,0-.97222-.97222H32.08333V7.77778ZM29.16667,1.94444h3.88889V5.83333H29.16667Zm-27.22223,0H5.83333V5.83333H1.94444ZM5.83333,33.05556H1.94444V29.16667H5.83333Zm27.22223,0H29.16667V29.16667h3.88889Zm-2.91667-5.83334H28.19444a.97227.97227,0,0,0-.97222.97222v1.94445H7.77778V28.19444a.97227.97227,0,0,0-.97222-.97222H4.86111V7.77778H6.80556a.97227.97227,0,0,0,.97222-.97222V4.55188H27.22222V6.80556a.97227.97227,0,0,0,.97222.97222h1.94445Z"/>
    <path d="M24.9187,10.02661H10.081a.97227.97227,0,0,0-.97222.97222v1.92783a.97223.97223,0,1,0,1.94445,0v-.9556h5.47444V24.19267H15.16657a.97222.97222,0,0,0,0,1.94444h4.66667a.97222.97222,0,1,0,0-1.94444H18.47213V11.97106h5.47435v.9556a.97222.97222,0,1,0,1.94444,0V10.99883A.97227.97227,0,0,0,24.9187,10.02661Z"/>
  </g>
</svg>
