<svg id="Layer_1" data-name="Layer 1" xmlns="http://www.w3.org/2000/svg" width="35" height="30.93708" viewBox="0 0 35 30.93708">
  <g>
    <path d="M15.84409,31.06891H.97222A.97227.97227,0,0,1,0,30.09669V3.00368a.97227.97227,0,0,1,.97222-.97222H34.02778A.97227.97227,0,0,1,35,3.00368V23.71334a.97222.97222,0,1,1-1.94444,0V3.9759H1.94444V29.12446H15.84409a.97223.97223,0,0,1,0,1.94445Z" transform="translate(0 -2.03146)"/>
    <path d="M32.12815,32.96854H22.30367a2.87181,2.87181,0,0,1,0-5.74361h9.82448a2.87181,2.87181,0,1,1,0,5.74361Zm-9.82448-3.79917a.92737.92737,0,0,0,0,1.85473h9.82448a.92737.92737,0,1,0,0-1.85473Z" transform="translate(0 -2.03146)"/>
  </g>
</svg>
