<svg height="511pt" viewBox="1 -89 511.99961 511" width="511pt" xmlns="http://www.w3.org/2000/svg"><path d="m298.75 225.539062c-11.070312-6.519531-22.679688-12-34.675781-16.414062 26.328125-21.597656 43.148437-54.351562 43.148437-90.957031 0-64.882813-52.839844-117.667969-117.789062-117.667969-64.953125 0-117.792969 52.785156-117.792969 117.667969 0 36.605469 16.824219 69.359375 43.152344 90.957031-11.996094 4.414062-23.605469 9.894531-34.675781 16.414062-32.023438 18.851563-58.789063 45.800782-77.402344 77.9375-7.707032 13.300782 1.90625 30.023438 17.304687 30.023438h338.824219c15.375 0 25.027344-16.695312 17.308594-30.023438-18.613282-32.136718-45.378906-59.085937-77.402344-77.9375zm-187.109375-107.371093c0-42.824219 34.898437-77.667969 77.792969-77.667969 42.894531 0 77.792968 34.839844 77.792968 77.667969 0 42.824219-34.898437 77.664062-77.792968 77.664062-42.894532 0-77.792969-34.839843-77.792969-77.664062zm-52.371094 175.332031c11.90625-13.125 25.78125-24.453125 41.136719-33.492188 26.863281-15.816406 57.648438-24.175781 89.027344-24.175781s62.160156 8.359375 89.023437 24.175781c15.359375 9.039063 29.230469 20.367188 41.136719 33.492188zm452.730469-210.082031c0 11.042969-8.953125 20-20 20h-42.996094v42.914062c0 11.046875-8.957031 20-20 20-11.046875 0-20-8.953125-20-20v-42.914062h-42.996094c-11.046874 0-20-8.957031-20-20 0-11.046875 8.953126-20 20-20h42.996094v-42.917969c0-11.046875 8.953125-20 20-20 11.042969 0 20 8.953125 20 20v42.917969h42.996094c11.046875 0 20 8.953125 20 20zm0 0"/></svg>