<svg id="Layer_1" data-name="Layer 1" xmlns="http://www.w3.org/2000/svg" width="35" height="35" viewBox="0 0 35 35">
  <g>
    <path d="M17.5,1.94444A15.55556,15.55556,0,1,1,1.94444,17.5,15.55555,15.55555,0,0,1,17.5,1.94444M17.5,0A17.5,17.5,0,1,0,35,17.5,17.51986,17.51986,0,0,0,17.5,0Z"/>
    <path d="M26.25,16.52787H18.47217V8.75009a.97223.97223,0,0,0-1.94445,0v7.77778H8.75a.97223.97223,0,1,0,0,1.94445h7.77777v7.77777a.97223.97223,0,1,0,1.94445,0V18.47232H26.25a.97223.97223,0,0,0,0-1.94445Z"/>
  </g>
</svg>
