<svg xmlns="http://www.w3.org/2000/svg" width="35" height="35" viewBox="0 0 35 35">
  <g id="Rough_Layer" data-name="Rough Layer">
    <g>
      <path d="M29.99147,8.52237A17.10005,17.10005,0,0,0,17.58772,3.28955,17.358,17.358,0,0,0,5.10129,8.51724,17.84821,17.84821,0,0,0,0,21.10414,17.8593,17.8593,0,0,0,3.65513,31.296a.97324.97324,0,1,0,1.59366-1.1176,15.97587,15.97587,0,0,1-3.30233-9.07423A15.77376,15.77376,0,0,1,17.58772,5.236,15.51625,15.51625,0,0,1,29.99147,30.01215a.97325.97325,0,0,0,1.59614,1.11408A17.401,17.401,0,0,0,35,21.10414,17.97358,17.97358,0,0,0,29.99147,8.52237Z"/>
      <path d="M24.76739,12.59645,20.16184,17.202a4.68585,4.68585,0,1,0,1.36585,1.38694l4.6161-4.61609a.97326.97326,0,1,0-1.3764-1.3764ZM17.58772,23.8347a2.73052,2.73052,0,1,1,2.73056-2.73056A2.73359,2.73359,0,0,1,17.58772,23.8347Z"/>
    </g>
  </g>
</svg>
