<?xml version="1.0" encoding="utf-8"?>
<!-- Generator: Adobe Illustrator 16.0.0, SVG Export Plug-In . SVG Version: 6.00 Build 0)  -->
<!DOCTYPE svg PUBLIC "-//W3C//DTD SVG 1.1//EN" "http://www.w3.org/Graphics/SVG/1.1/DTD/svg11.dtd">
<svg version="1.1" id="Layer_1" xmlns="http://www.w3.org/2000/svg" xmlns:xlink="http://www.w3.org/1999/xlink" x="0px" y="0px"
	 width="30px" height="30px" viewBox="0 0 30 30" enable-background="new 0 0 30 30" xml:space="preserve">
<g>
	<path fill="#FBBB00" d="M6.648,18.129l-1.044,3.898l-3.816,0.081C0.647,19.992,0,17.572,0,15c0-2.487,0.605-4.833,1.677-6.898h0
		l3.398,0.623l1.489,3.378C6.253,13.011,6.083,13.985,6.083,15C6.083,16.102,6.283,17.157,6.648,18.129z"/>
	<path fill="#518EF8" d="M29.737,12.198C29.91,13.105,30,14.042,30,15c0,1.074-0.112,2.121-0.328,3.132
		c-0.729,3.438-2.638,6.44-5.28,8.566l-0.002-0.002l-4.279-0.218l-0.606-3.781c1.754-1.029,3.125-2.639,3.847-4.565H15.33v-5.934
		h8.138H29.737L29.737,12.198z"/>
	<path fill="#28B446" d="M24.39,26.696l0.002,0.002C21.82,28.764,18.556,30,15,30c-5.712,0-10.679-3.194-13.212-7.892l4.861-3.979
		c1.267,3.381,4.529,5.788,8.352,5.788c1.644,0,3.184-0.444,4.504-1.22L24.39,26.696z"/>
	<path fill="#F14336" d="M24.573,3.453l-4.857,3.979C18.348,6.577,16.731,6.083,15,6.083c-3.91,0-7.232,2.517-8.436,6.019l-4.887-4
		h0C4.173,3.289,9.203,0,15,0C18.64,0,21.978,1.296,24.573,3.453z"/>
</g>
</svg>
