 <svg class="icon icon iconSm" xmlns="http://www.w3.org/2000/svg" width="35" height="35" viewBox="0 0 35 35">
                                         <g id="Layer_1" data-name="Layer 1"> <path d="M27.4435,34.21236a1.40778,1.40778,0,0,1-.82908-.27033l-9.11435-6.62194-9.11444,6.622a1.41052,1.41052,0,0,1-2.17056-1.577L9.69644,21.65045.582,15.02841a1.41044,1.41044,0,0,1,.82909-2.55153H12.67713L16.1586,1.76225a1.41051,1.41051,0,0,1,2.68294-.0001v.0001l3.48137,10.71463H33.589a1.41049,1.41049,0,0,1,.829,2.55163l-9.11434,6.62194,3.48146,10.71472a1.41183,1.41183,0,0,1-1.34157,1.84719ZM3.07192,14.427l8.34392,6.06223a.97493.97493,0,0,1,.35422,1.09009l-3.18714,9.809,8.344-6.06223a.97494.97494,0,0,1,1.14627,0l8.34392,6.06223L23.23,21.57932a.97494.97494,0,0,1,.35422-1.09009L31.92812,14.427H21.61447a.97517.97517,0,0,1-.92736-.67378l-3.187-9.80889-3.18714,9.80889a.97516.97516,0,0,1-.92735.67378Z" />
                                         </g>
                                         </svg>