<svg id="Layer_1" data-name="Layer 1" xmlns="http://www.w3.org/2000/svg" width="35" height="28.43734" viewBox="0 0 35 28.43734">
  <path d="M35,6.64762a14.96015,14.96015,0,0,1-4.13438,1.13313,7.13564,7.13564,0,0,0,3.15657-3.96594,14.33889,14.33889,0,0,1-4.55,1.73688,7.175,7.175,0,0,0-12.41188,4.90656,7.38867,7.38867,0,0,0,.16625,1.63625A20.30875,20.30875,0,0,1,2.43687,4.58919a7.186,7.186,0,0,0,2.205,9.59A7.08748,7.08748,0,0,1,1.4,13.29544v.07875A7.20782,7.20782,0,0,0,7.14875,20.4245a7.16217,7.16217,0,0,1-1.88125.23625,6.34385,6.34385,0,0,1-1.35844-.1225,7.24283,7.24283,0,0,0,6.70469,4.99844A14.41568,14.41568,0,0,1,1.71719,28.597,13.43906,13.43906,0,0,1,0,28.49856a20.19934,20.19934,0,0,0,11.0075,3.22c13.20375,0,20.4225-10.9375,20.4225-20.41812,0-.31719-.01094-.62344-.02625-.9275A14.31486,14.31486,0,0,0,35,6.64762Z" transform="translate(0 -3.28133)" style="fill: #03a9f4"/>
</svg>
